*
G04 Mass Parameters ***
*
G04 Image ***
*
%INC:\ORCAD\PROGETTI\STM32\POD-6.SMB*%
%ICAS*%
%MOIN*%
%IPPOS*%
%ASAXBY*%
G74*%FSLAN2X34Y34*%
*
G04 Aperture Definitions ***
*
%ADD10C,0.0780*%
%ADD11R,0.0320X0.0380*%
%ADD12R,0.0925X0.0886*%
%ADD13R,0.0964X0.0964*%
%ADD14R,0.1575X0.0807*%
%ADD15R,0.1378X0.0807*%
%ADD16R,0.0886X0.0197*%
%ADD17R,0.0580X0.0580*%
%ADD18R,0.0551X0.0708*%
%ADD19R,0.0787X0.0315*%
%ADD20R,0.1030X0.1080*%
%ADD21R,0.1080X0.1030*%
%ADD22R,0.0500X0.0600*%
%ADD23C,0.0580*%
%ADD24C,0.0800*%
%ADD25R,0.0800X0.0800*%
%ADD26R,0.1102X0.0295*%
%ADD27R,0.0340X0.0400*%
%ADD28R,0.0340X0.0500*%
%ADD29R,0.0400X0.0340*%
%ADD30R,0.0500X0.0340*%
%ADD31R,0.0380X0.0320*%
%ADD32R,0.1420X0.0880*%
%ADD33R,0.0480X0.0880*%
%ADD34C,0.0100*%
%ADD35C,0.0160*%
%ADD36C,0.0400*%
%ADD37C,0.0200*%
%ADD38C,0.0180*%
%ADD39R,0.0500X0.0500*%
%ADD40R,0.1594X0.0827*%
%ADD41R,0.1397X0.0827*%
%ADD42R,0.0925X0.0216*%
%ADD43R,0.0571X0.0728*%
%ADD44R,0.0807X0.0334*%
%ADD45C,0.0450*%
*
G04 Plot Data ***
*
G54D13*
X-0052900Y0032730D03*
Y0035170D03*
G54D17*
X-0032400Y0034000D03*
X-0046400Y0030200D03*
X-0053000Y0039000D03*
X-0044000D03*
X-0034000D03*
X-0053000Y0023000D03*
X-0044000D03*
X-0034000D03*
X-0053000Y0038000D03*
X-0044000D03*
X-0034000D03*
X-0053000Y0022000D03*
X-0044000D03*
X-0034000D03*
X-0029200Y0028700D03*
Y0027500D03*
Y0026300D03*
Y0025200D03*
X-0045000Y0033700D03*
X-0051000Y0036300D03*
X-0049300Y0024400D03*
G54D23*
X-0032400Y0033000D03*
Y0032000D03*
X-0046400Y0031200D03*
Y0032200D03*
X-0052000Y0039000D03*
X-0051000D03*
X-0050000D03*
X-0049000D03*
X-0048000D03*
X-0047000D03*
X-0046000D03*
X-0045000D03*
X-0043000D03*
X-0042000D03*
X-0041000D03*
X-0040000D03*
X-0039000D03*
X-0038000D03*
X-0037000D03*
X-0036000D03*
X-0035000D03*
X-0033000D03*
X-0032000D03*
X-0031000D03*
X-0030000D03*
X-0029000D03*
X-0052000Y0023000D03*
X-0051000D03*
X-0050000D03*
X-0049000D03*
X-0048000D03*
X-0047000D03*
X-0046000D03*
X-0045000D03*
X-0043000D03*
X-0042000D03*
X-0041000D03*
X-0040000D03*
X-0039000D03*
X-0038000D03*
X-0037000D03*
X-0036000D03*
X-0035000D03*
X-0033000D03*
X-0032000D03*
X-0031000D03*
X-0030000D03*
X-0029000D03*
X-0052000Y0038000D03*
X-0051000D03*
X-0050000D03*
X-0049000D03*
X-0048000D03*
X-0047000D03*
X-0046000D03*
X-0045000D03*
X-0043000D03*
X-0042000D03*
X-0041000D03*
X-0040000D03*
X-0039000D03*
X-0038000D03*
X-0037000D03*
X-0036000D03*
X-0035000D03*
X-0033000D03*
X-0032000D03*
X-0031000D03*
X-0030000D03*
X-0029000D03*
X-0052000Y0022000D03*
X-0051000D03*
X-0050000D03*
X-0049000D03*
X-0048000D03*
X-0047000D03*
X-0046000D03*
X-0045000D03*
X-0043000D03*
X-0042000D03*
X-0041000D03*
X-0040000D03*
X-0039000D03*
X-0038000D03*
X-0037000D03*
X-0036000D03*
X-0035000D03*
X-0033000D03*
X-0032000D03*
X-0031000D03*
X-0030000D03*
X-0029000D03*
G54D24*
X-0026600Y0036700D03*
Y0035700D03*
G54D31*
X-0031000Y0024700D03*
Y0024140D03*
X-0029000Y0036300D03*
Y0036860D03*
X-0032000Y0036300D03*
Y0036860D03*
X-0033000Y0036300D03*
Y0036860D03*
X-0053500Y0028100D03*
Y0027540D03*
X-0052700Y0028100D03*
Y0027540D03*
X-0047000Y0024150D03*
Y0024560D03*
X-0048000Y0024150D03*
Y0024560D03*
X-0046000Y0024150D03*
Y0024560D03*
X-0050000Y0036850D03*
Y0036440D03*
X-0049000Y0036850D03*
Y0036440D03*
X-0048000Y0036850D03*
Y0036440D03*
X-0047000Y0036850D03*
Y0036440D03*
X-0046000Y0036850D03*
Y0036440D03*
X-0052000Y0036850D03*
Y0036440D03*
G54D39*
X-0052900Y0030850D03*
Y0031690D03*
G54D45*
X-0039900Y0025700D03*
X-0043100D03*
X-0054350Y0027550D03*
X-0045250Y0036900D03*
X-0027500Y0030900D03*
X-0033750Y0036850D03*
X-0054150Y0036900D03*
Y0032700D03*
X-0035050Y0031100D03*
X-0051350Y0030900D03*
X-0049050Y0030400D03*
X-0049550Y0031450D03*
X-0045700Y0028250D03*
X-0044550Y0025300D03*
X-0051500Y0032250D03*
X-0051000Y0031833D03*
X-0030200Y0030400D03*
Y0032500D03*
X-0028900Y0033000D03*
Y0031400D03*
X-0026100Y0023950D03*
X-0050500Y0031400D03*
X-0050000Y0032000D03*
X-0046000Y0035750D03*
X-0029500Y0033500D03*
Y0030950D03*
X-0049000Y0035800D03*
X-0030900Y0027100D03*
Y0033400D03*
X-0048000Y0035750D03*
X-0052000D03*
X-0047550Y0027500D03*
X-0050000Y0033100D03*
X-0047000Y0035750D03*
M02*
