*
G04 Mass Parameters ***
*
G04 Image ***
*
%INC:\ORCAD\PROGETTI\STM32\POD-6.AST*%
%ICAS*%
%MOIN*%
%IPPOS*%
%ASAXBY*%
G74*%FSLAN2X34Y34*%
*
G04 Aperture Definitions ***
*
%ADD10C,0.0780*%
%ADD11R,0.0320X0.0380*%
%ADD12R,0.0925X0.0886*%
%ADD13R,0.0964X0.0964*%
%ADD14R,0.1575X0.0807*%
%ADD15R,0.1378X0.0807*%
%ADD16R,0.0886X0.0197*%
%ADD17R,0.0580X0.0580*%
%ADD18R,0.0551X0.0708*%
%ADD19R,0.0787X0.0315*%
%ADD20R,0.1030X0.1080*%
%ADD21R,0.1080X0.1030*%
%ADD22R,0.0500X0.0600*%
%ADD23C,0.0580*%
%ADD24C,0.0800*%
%ADD25R,0.0800X0.0800*%
%ADD26R,0.1102X0.0295*%
%ADD27R,0.0340X0.0400*%
%ADD28R,0.0340X0.0500*%
%ADD29R,0.0400X0.0340*%
%ADD30R,0.0500X0.0340*%
%ADD31R,0.0380X0.0320*%
%ADD32R,0.1420X0.0880*%
%ADD33R,0.0480X0.0880*%
%ADD34C,0.0100*%
%ADD35C,0.0160*%
%ADD36C,0.0400*%
%ADD37C,0.0200*%
%ADD38C,0.0180*%
%ADD39R,0.0500X0.0500*%
%ADD40R,0.1594X0.0827*%
%ADD41R,0.1397X0.0827*%
%ADD42R,0.0925X0.0216*%
%ADD43R,0.0571X0.0728*%
%ADD44R,0.0807X0.0334*%
%ADD45C,0.0450*%
%ADD46C,0.0080*%
%ADD47C,0.0060*%
%ADD48C,0.0079*%
%ADD49C,0.0098*%
%ADD50C,0.0050*%
%ADD51C,0.0059*%
%ADD52C,0.0010*%
%ADD53C,0.0039*%
*
G04 Plot Data ***
*
G54D34*
G01X-0026030Y0036725D02*
Y0036436D01*
X-0026319Y0036725D01*
X-0026392D01*
X-0026464Y0036689D01*
Y0036472D01*
X-0026392Y0036436D01*
X-0026464Y0036200D02*
X-0026030D01*
X-0026103Y0036128D01*
X-0026392Y0035983D01*
X-0026464Y0035911D01*
X-0026030D01*
Y0035422D02*
X-0026103Y0035386D01*
X-0026392D01*
X-0026464Y0035422D01*
Y0035639D01*
X-0026392Y0035675D01*
X-0026103D01*
X-0026030Y0035639D01*
Y0035422D01*
X-0026103Y0035150D02*
X-0026030Y0035114D01*
Y0034897D01*
X-0026103Y0034861D01*
X-0026392D01*
X-0026464Y0034897D01*
Y0035114D01*
X-0026392Y0035150D01*
X-0028155Y0035422D02*
X-0028589Y0035639D01*
Y0035350D01*
X-0028300Y0034861D02*
X-0028228D01*
X-0028155Y0034897D01*
Y0035042D01*
X-0028228Y0035078D01*
X-0028589D01*
Y0035114D02*
Y0034969D01*
X-0055000Y0040000D02*
X-0025000D01*
Y0021000D01*
X-0055000D01*
Y0040000D01*
X-0025600Y0035200D02*
X-0027850D01*
Y0037200D01*
X-0025600D01*
Y0035200D01*
X-0027500Y0037200D02*
Y0035200D01*
X-0025600Y0036200D02*
X-0027475D01*
G54D46*
G01X-0040307Y0026507D02*
X-0040141D01*
X-0040113Y0026451D01*
Y0026395D01*
X-0040141Y0026340D01*
X-0040307D01*
X-0040335Y0026395D01*
Y0026451D01*
X-0040224Y0026673D01*
X-0039925D02*
X-0039814D01*
X-0039870D02*
Y0026340D01*
X-0039814Y0026395D01*
X-0039543Y0026507D02*
X-0039571Y0026451D01*
Y0026395D01*
X-0039543Y0026340D01*
X-0039376D01*
X-0039349Y0026395D01*
Y0026451D01*
X-0039376Y0026507D01*
X-0039543D01*
X-0039571Y0026562D01*
Y0026618D01*
X-0039543Y0026673D01*
X-0039376D01*
X-0039349Y0026618D01*
Y0026562D01*
X-0039376Y0026507D01*
X-0038939Y0026618D02*
X-0038966Y0026673D01*
X-0039133D01*
X-0039161Y0026618D01*
Y0026507D01*
X-0039105Y0026451D01*
X-0038939D01*
Y0026340D01*
X-0039161D01*
X-0038751D02*
Y0026673D01*
X-0038695Y0026618D01*
X-0038584Y0026395D01*
X-0038529Y0026340D01*
Y0026673D01*
X-0038341D02*
X-0038230D01*
X-0038285D02*
Y0026340D01*
X-0038230Y0026395D01*
X-0027007Y0021742D02*
Y0021909D01*
X-0026951Y0021937D01*
X-0026895D01*
X-0026840Y0021909D01*
Y0021742D01*
X-0026895Y0021715D01*
X-0026951D01*
X-0027173Y0021826D01*
Y0022125D02*
Y0022236D01*
Y0022180D02*
X-0026840D01*
X-0026895Y0022236D01*
X-0027007Y0022507D02*
X-0026951Y0022479D01*
X-0026895D01*
X-0026840Y0022507D01*
Y0022673D01*
X-0026895Y0022701D01*
X-0026951D01*
X-0027007Y0022673D01*
Y0022507D01*
X-0027062Y0022479D01*
X-0027118D01*
X-0027173Y0022507D01*
Y0022673D01*
X-0027118Y0022701D01*
X-0027062D01*
X-0027007Y0022673D01*
X-0027118Y0023111D02*
X-0027173Y0023083D01*
Y0022917D01*
X-0027118Y0022889D01*
X-0027007D01*
X-0026951Y0022945D01*
Y0023111D01*
X-0026840D01*
Y0022889D01*
Y0023299D02*
X-0027173D01*
X-0027118Y0023355D01*
X-0026895Y0023466D01*
X-0026840Y0023521D01*
X-0027173D01*
Y0023709D02*
Y0023820D01*
Y0023764D02*
X-0026840D01*
X-0026895Y0023820D01*
X-0029242Y0036493D02*
X-0029409D01*
X-0029437Y0036549D01*
Y0036604D01*
X-0029409Y0036660D01*
X-0029242D01*
X-0029215Y0036604D01*
Y0036549D01*
X-0029326Y0036327D01*
X-0029625D02*
X-0029736D01*
X-0029680D02*
Y0036660D01*
X-0029736Y0036604D01*
X-0030007Y0036493D02*
X-0029979Y0036549D01*
Y0036604D01*
X-0030007Y0036660D01*
X-0030173D01*
X-0030201Y0036604D01*
Y0036549D01*
X-0030173Y0036493D01*
X-0030007D01*
X-0029979Y0036438D01*
Y0036382D01*
X-0030007Y0036327D01*
X-0030173D01*
X-0030201Y0036382D01*
Y0036438D01*
X-0030173Y0036493D01*
X-0030611Y0036382D02*
X-0030583Y0036327D01*
X-0030417D01*
X-0030389Y0036382D01*
Y0036493D01*
X-0030445Y0036549D01*
X-0030611D01*
Y0036660D01*
X-0030389D01*
X-0030799D02*
Y0036327D01*
X-0030855Y0036382D01*
X-0030966Y0036604D01*
X-0031021Y0036660D01*
Y0036327D01*
X-0031209D02*
X-0031320D01*
X-0031264D02*
Y0036660D01*
X-0031320Y0036604D01*
X-0032567Y0034944D02*
Y0035055D01*
Y0035000D02*
X-0032234D01*
X-0032290Y0035055D01*
X-0032512Y0031111D02*
X-0032567Y0031055D01*
Y0030944D01*
X-0032512Y0030889D01*
X-0032456D01*
X-0032345Y0031000D01*
X-0032234Y0030889D01*
Y0031111D01*
X-0053062Y0037444D02*
X-0053285D01*
X-0053173Y0037666D01*
X-0053118D01*
Y0037333D01*
X-0053667Y0037444D02*
Y0037388D01*
X-0053639Y0037333D01*
X-0053528D01*
X-0053500Y0037388D01*
Y0037666D01*
X-0053472D02*
X-0053583D01*
X-0052166Y0037888D02*
X-0052138Y0037832D01*
X-0051971D01*
X-0051943Y0037888D01*
Y0037999D01*
X-0051999Y0038055D01*
X-0052166D01*
Y0038166D01*
X-0051943D01*
X-0052353Y0037832D02*
X-0052576D01*
X-0052353Y0038055D01*
Y0038110D01*
X-0052381Y0038166D01*
X-0052548D01*
X-0052576Y0038110D01*
X-0052763Y0038166D02*
Y0037832D01*
X-0052819Y0037888D01*
X-0052930Y0038110D01*
X-0052986Y0038166D01*
Y0037832D01*
X-0053368D02*
X-0053396Y0037888D01*
Y0038110D01*
X-0053368Y0038166D01*
X-0053201D01*
X-0053173Y0038110D01*
Y0037888D01*
X-0053201Y0037832D01*
X-0053368D01*
X-0053583Y0037888D02*
X-0053611Y0037832D01*
X-0053778D01*
X-0053806Y0037888D01*
Y0038110D01*
X-0053778Y0038166D01*
X-0053611D01*
X-0053583Y0038110D01*
X-0053944Y0038832D02*
X-0054055D01*
X-0054000D02*
Y0039166D01*
X-0054055Y0039110D01*
X-0027590Y0038888D02*
X-0027562Y0038832D01*
X-0027396D01*
X-0027368Y0038888D01*
Y0038999D01*
X-0027423Y0039055D01*
X-0027590D01*
Y0039166D01*
X-0027368D01*
X-0027778Y0038832D02*
X-0028000D01*
X-0027778Y0039055D01*
Y0039110D01*
X-0027806Y0039166D01*
X-0027972D01*
X-0028000Y0039110D01*
X-0044624Y0032144D02*
X-0044847D01*
X-0044736Y0032366D01*
X-0044680D01*
Y0032033D01*
X-0045034Y0032366D02*
Y0032033D01*
X-0045090Y0032088D01*
X-0045201Y0032310D01*
X-0045257Y0032366D01*
Y0032033D01*
X-0045444Y0032088D02*
X-0045472Y0032033D01*
X-0045639D01*
X-0045667Y0032088D01*
Y0032310D01*
X-0045639Y0032366D01*
X-0045472D01*
X-0045444Y0032310D01*
X-0040531Y0032755D02*
X-0040698D01*
X-0040504Y0032532D02*
X-0040615D01*
X-0040642Y0032588D01*
Y0032866D01*
X-0040886Y0032755D02*
X-0041052D01*
X-0041080Y0032699D01*
Y0032588D01*
X-0041052Y0032532D01*
X-0040886D01*
X-0041296D02*
X-0041462D01*
X-0041490Y0032588D01*
Y0032699D01*
X-0041462Y0032755D01*
X-0041296D01*
X-0041268Y0032699D01*
Y0032644D01*
X-0041490D01*
X-0041678Y0032532D02*
Y0032699D01*
X-0041706Y0032755D01*
X-0041872D01*
Y0032532D01*
X-0042060D02*
Y0032699D01*
X-0042088Y0032755D01*
X-0042255D01*
Y0032532D01*
X-0042637D02*
X-0042665Y0032588D01*
Y0032699D01*
X-0042637Y0032755D01*
X-0042470D01*
X-0042442Y0032699D01*
Y0032588D01*
X-0042470Y0032532D01*
X-0042637D01*
X-0042852Y0032755D02*
X-0043019D01*
X-0043047Y0032699D01*
Y0032588D01*
X-0043019Y0032532D01*
X-0042852D01*
X-0043262Y0032755D02*
X-0043429D01*
X-0043457Y0032699D01*
X-0043429Y0032644D01*
X-0043262D01*
X-0043234Y0032588D01*
X-0043262Y0032532D01*
X-0043429D01*
X-0043700Y0032865D02*
Y0032866D01*
Y0032865D01*
X-0043644Y0032532D02*
X-0043756D01*
X-0043700D02*
Y0032755D01*
X-0043756D01*
X-0043971Y0032866D02*
Y0032532D01*
X-0044138D01*
X-0044166Y0032588D01*
Y0032699D01*
X-0044138Y0032755D01*
X-0043971D01*
X-0044353Y0032421D02*
X-0044576D01*
X-0044958Y0032532D02*
Y0032866D01*
X-0044986Y0032532D02*
X-0044819D01*
X-0044763Y0032588D01*
Y0032644D01*
X-0044791Y0032699D01*
X-0044958D02*
X-0044791D01*
X-0044763Y0032755D01*
Y0032810D01*
X-0044819Y0032866D01*
X-0044986D01*
X-0045173Y0032810D02*
X-0045201Y0032866D01*
X-0045368D01*
X-0045396Y0032810D01*
Y0032755D01*
X-0045368Y0032699D01*
X-0045201D01*
X-0045173Y0032644D01*
Y0032588D01*
X-0045201Y0032532D01*
X-0045368D01*
X-0045396Y0032588D01*
X-0045583Y0032866D02*
Y0032588D01*
X-0045611Y0032532D01*
X-0045778D01*
X-0045806Y0032588D01*
Y0032866D01*
X-0030788Y0035863D02*
X-0030732Y0035807D01*
X-0030621D01*
X-0030565Y0035863D01*
Y0035919D01*
X-0030677Y0036030D01*
X-0030565Y0036141D01*
X-0030788D01*
X-0031170Y0035807D02*
Y0036141D01*
X-0031198Y0035807D02*
X-0031031D01*
X-0030975Y0035919D01*
Y0036030D01*
X-0031031Y0036141D01*
X-0031198D01*
X-0029047Y0023588D02*
X-0029019Y0023533D01*
X-0028852D01*
X-0028824Y0023588D01*
Y0023699D01*
X-0028880Y0023755D01*
X-0029047D01*
Y0023866D01*
X-0028824D01*
X-0029234D02*
Y0023533D01*
X-0029290Y0023588D01*
X-0029401Y0023810D01*
X-0029457Y0023866D01*
Y0023533D01*
X-0029644Y0023588D02*
X-0029672Y0023533D01*
X-0029839D01*
X-0029867Y0023588D01*
Y0023810D01*
X-0029839Y0023866D01*
X-0029672D01*
X-0029644Y0023810D01*
X-0028637Y0024032D02*
X-0028748D01*
X-0028692D02*
Y0024366D01*
X-0028748Y0024310D01*
X-0029186Y0024032D02*
Y0024366D01*
X-0029213Y0024032D02*
X-0029047D01*
X-0028991Y0024144D01*
Y0024255D01*
X-0029047Y0024366D01*
X-0029213D01*
X-0029457Y0024199D02*
X-0029623D01*
X-0029401Y0024032D02*
X-0029623D01*
Y0024366D01*
X-0029401D01*
X-0029811Y0024032D02*
X-0030006D01*
Y0024366D01*
X-0053118Y0020333D02*
X-0053229D01*
X-0053173D02*
Y0020666D01*
X-0053229Y0020610D01*
X-0053667Y0020444D02*
Y0020388D01*
X-0053639Y0020333D01*
X-0053528D01*
X-0053500Y0020388D01*
Y0020666D01*
X-0053472D02*
X-0053583D01*
X-0052166Y0020888D02*
X-0052138Y0020832D01*
X-0051971D01*
X-0051943Y0020888D01*
Y0020999D01*
X-0051999Y0021055D01*
X-0052166D01*
Y0021166D01*
X-0051943D01*
X-0052353Y0020832D02*
X-0052576D01*
X-0052353Y0021055D01*
Y0021110D01*
X-0052381Y0021166D01*
X-0052548D01*
X-0052576Y0021110D01*
X-0052763Y0021166D02*
Y0020832D01*
X-0052819Y0020888D01*
X-0052930Y0021110D01*
X-0052986Y0021166D01*
Y0020832D01*
X-0053368D02*
X-0053396Y0020888D01*
Y0021110D01*
X-0053368Y0021166D01*
X-0053201D01*
X-0053173Y0021110D01*
Y0020888D01*
X-0053201Y0020832D01*
X-0053368D01*
X-0053583Y0020888D02*
X-0053611Y0020832D01*
X-0053778D01*
X-0053806Y0020888D01*
Y0021110D01*
X-0053778Y0021166D01*
X-0053611D01*
X-0053583Y0021110D01*
X-0053944Y0021832D02*
X-0054055D01*
X-0054000D02*
Y0022166D01*
X-0054055Y0022110D01*
X-0027590Y0021888D02*
X-0027562Y0021832D01*
X-0027396D01*
X-0027368Y0021888D01*
Y0021999D01*
X-0027423Y0022055D01*
X-0027590D01*
Y0022166D01*
X-0027368D01*
X-0027778Y0021832D02*
X-0028000D01*
X-0027778Y0022055D01*
Y0022110D01*
X-0027806Y0022166D01*
X-0027972D01*
X-0028000Y0022110D01*
X-0028852Y0027199D02*
X-0028824Y0027255D01*
Y0027310D01*
X-0028852Y0027366D01*
X-0029019D01*
X-0029047Y0027310D01*
Y0027255D01*
X-0029019Y0027199D01*
X-0028852D01*
X-0028824Y0027144D01*
Y0027088D01*
X-0028852Y0027033D01*
X-0029019D01*
X-0029047Y0027088D01*
Y0027144D01*
X-0029019Y0027199D01*
X-0029234Y0027366D02*
Y0027033D01*
X-0029290Y0027088D01*
X-0029401Y0027310D01*
X-0029457Y0027366D01*
Y0027033D01*
X-0029644Y0027088D02*
X-0029672Y0027033D01*
X-0029839D01*
X-0029867Y0027088D01*
Y0027310D01*
X-0029839Y0027366D01*
X-0029672D01*
X-0029644Y0027310D01*
X-0028581Y0027644D02*
X-0028803D01*
X-0028692Y0027866D01*
X-0028637D01*
Y0027532D01*
X-0029186D02*
Y0027866D01*
X-0029213Y0027532D02*
X-0029047D01*
X-0028991Y0027644D01*
Y0027755D01*
X-0029047Y0027866D01*
X-0029213D01*
X-0029457Y0027699D02*
X-0029623D01*
X-0029401Y0027532D02*
X-0029623D01*
Y0027866D01*
X-0029401D01*
X-0029811Y0027532D02*
X-0030006D01*
Y0027866D01*
X-0053062Y0036333D02*
X-0053285D01*
X-0053062Y0036555D01*
Y0036610D01*
X-0053090Y0036666D01*
X-0053257D01*
X-0053285Y0036610D01*
X-0053667Y0036444D02*
Y0036388D01*
X-0053639Y0036333D01*
X-0053528D01*
X-0053500Y0036388D01*
Y0036666D01*
X-0053472D02*
X-0053583D01*
X-0052166Y0036888D02*
X-0052138Y0036832D01*
X-0051971D01*
X-0051943Y0036888D01*
Y0036999D01*
X-0051999Y0037055D01*
X-0052166D01*
Y0037166D01*
X-0051943D01*
X-0052353Y0036832D02*
X-0052576D01*
X-0052353Y0037055D01*
Y0037110D01*
X-0052381Y0037166D01*
X-0052548D01*
X-0052576Y0037110D01*
X-0052763Y0037166D02*
Y0036832D01*
X-0052819Y0036888D01*
X-0052930Y0037110D01*
X-0052986Y0037166D01*
Y0036832D01*
X-0053368D02*
X-0053396Y0036888D01*
Y0037110D01*
X-0053368Y0037166D01*
X-0053201D01*
X-0053173Y0037110D01*
Y0036888D01*
X-0053201Y0036832D01*
X-0053368D01*
X-0053583Y0036888D02*
X-0053611Y0036832D01*
X-0053778D01*
X-0053806Y0036888D01*
Y0037110D01*
X-0053778Y0037166D01*
X-0053611D01*
X-0053583Y0037110D01*
X-0053944Y0037832D02*
X-0054055D01*
X-0054000D02*
Y0038166D01*
X-0054055Y0038110D01*
X-0027590Y0037888D02*
X-0027562Y0037832D01*
X-0027396D01*
X-0027368Y0037888D01*
Y0037999D01*
X-0027423Y0038055D01*
X-0027590D01*
Y0038166D01*
X-0027368D01*
X-0027778Y0037832D02*
X-0028000D01*
X-0027778Y0038055D01*
Y0038110D01*
X-0027806Y0038166D01*
X-0027972D01*
X-0028000Y0038110D01*
X-0053285Y0021388D02*
X-0053229Y0021333D01*
X-0053118D01*
X-0053062Y0021388D01*
Y0021444D01*
X-0053173Y0021555D01*
X-0053062Y0021666D01*
X-0053285D01*
X-0053667Y0021444D02*
Y0021388D01*
X-0053639Y0021333D01*
X-0053528D01*
X-0053500Y0021388D01*
Y0021666D01*
X-0053472D02*
X-0053583D01*
X-0052166Y0021888D02*
X-0052138Y0021832D01*
X-0051971D01*
X-0051943Y0021888D01*
Y0021999D01*
X-0051999Y0022055D01*
X-0052166D01*
Y0022166D01*
X-0051943D01*
X-0052353Y0021832D02*
X-0052576D01*
X-0052353Y0022055D01*
Y0022110D01*
X-0052381Y0022166D01*
X-0052548D01*
X-0052576Y0022110D01*
X-0052763Y0022166D02*
Y0021832D01*
X-0052819Y0021888D01*
X-0052930Y0022110D01*
X-0052986Y0022166D01*
Y0021832D01*
X-0053368D02*
X-0053396Y0021888D01*
Y0022110D01*
X-0053368Y0022166D01*
X-0053201D01*
X-0053173Y0022110D01*
Y0021888D01*
X-0053201Y0021832D01*
X-0053368D01*
X-0053583Y0021888D02*
X-0053611Y0021832D01*
X-0053778D01*
X-0053806Y0021888D01*
Y0022110D01*
X-0053778Y0022166D01*
X-0053611D01*
X-0053583Y0022110D01*
X-0053944Y0022832D02*
X-0054055D01*
X-0054000D02*
Y0023166D01*
X-0054055Y0023110D01*
X-0027590Y0022888D02*
X-0027562Y0022832D01*
X-0027396D01*
X-0027368Y0022888D01*
Y0022999D01*
X-0027423Y0023055D01*
X-0027590D01*
Y0023166D01*
X-0027368D01*
X-0027778Y0022832D02*
X-0028000D01*
X-0027778Y0023055D01*
Y0023110D01*
X-0027806Y0023166D01*
X-0027972D01*
X-0028000Y0023110D01*
X-0028991Y0025833D02*
X-0028824Y0026166D01*
X-0029047D01*
X-0029234D02*
Y0025833D01*
X-0029290Y0025888D01*
X-0029401Y0026110D01*
X-0029457Y0026166D01*
Y0025833D01*
X-0029644Y0025888D02*
X-0029672Y0025833D01*
X-0029839D01*
X-0029867Y0025888D01*
Y0026110D01*
X-0029839Y0026166D01*
X-0029672D01*
X-0029644Y0026110D01*
X-0028803Y0026388D02*
X-0028748Y0026332D01*
X-0028637D01*
X-0028581Y0026388D01*
Y0026444D01*
X-0028692Y0026555D01*
X-0028581Y0026666D01*
X-0028803D01*
X-0029186Y0026332D02*
Y0026666D01*
X-0029213Y0026332D02*
X-0029047D01*
X-0028991Y0026444D01*
Y0026555D01*
X-0029047Y0026666D01*
X-0029213D01*
X-0029457Y0026499D02*
X-0029623D01*
X-0029401Y0026332D02*
X-0029623D01*
Y0026666D01*
X-0029401D01*
X-0029811Y0026332D02*
X-0030006D01*
Y0026666D01*
X-0050847Y0034688D02*
X-0050791Y0034633D01*
X-0050680D01*
X-0050624Y0034688D01*
Y0034744D01*
X-0050736Y0034855D01*
X-0050624Y0034966D01*
X-0050847D01*
X-0051034D02*
Y0034633D01*
X-0051090Y0034688D01*
X-0051201Y0034910D01*
X-0051257Y0034966D01*
Y0034633D01*
X-0051444Y0034688D02*
X-0051472Y0034633D01*
X-0051639D01*
X-0051667Y0034688D01*
Y0034910D01*
X-0051639Y0034966D01*
X-0051472D01*
X-0051444Y0034910D01*
X-0048387Y0035410D02*
X-0048415Y0035466D01*
X-0048581D01*
X-0048609Y0035410D01*
Y0035355D01*
X-0048581Y0035299D01*
X-0048415D01*
X-0048387Y0035244D01*
Y0035188D01*
X-0048415Y0035132D01*
X-0048581D01*
X-0048609Y0035188D01*
X-0048797D02*
X-0048825Y0035132D01*
X-0048991D01*
X-0049019Y0035188D01*
Y0035410D01*
X-0048991Y0035466D01*
X-0048825D01*
X-0048797Y0035410D01*
X-0049207Y0035021D02*
X-0049429D01*
X-0049617Y0035466D02*
Y0035132D01*
X-0049783D01*
X-0049811Y0035188D01*
Y0035299D01*
X-0049783Y0035355D01*
X-0049617D01*
X-0049999D02*
X-0050110D01*
X-0050138Y0035299D01*
X-0050193D01*
Y0035355D02*
Y0035132D01*
X-0050548Y0035355D02*
X-0050437D01*
X-0050409Y0035299D01*
Y0035188D01*
X-0050381Y0035132D01*
X-0050576D01*
X-0050603Y0035188D01*
X-0050576Y0035244D01*
X-0050409D01*
X-0050791Y0035355D02*
X-0050958D01*
X-0050986Y0035299D01*
Y0035188D01*
X-0050958Y0035132D01*
X-0050791D01*
X-0051368D02*
Y0035466D01*
X-0051396Y0035132D02*
X-0051229D01*
X-0051173Y0035244D01*
Y0035355D01*
X-0051229Y0035466D01*
X-0051396D01*
X-0051583Y0035410D02*
X-0051611Y0035466D01*
X-0051778D01*
X-0051806Y0035410D01*
Y0035355D01*
X-0051778Y0035299D01*
X-0051611D01*
X-0051583Y0035244D01*
Y0035188D01*
X-0051611Y0035132D01*
X-0051778D01*
X-0051806Y0035188D01*
X-0038929Y0027192D02*
X-0038818D01*
X-0038873D02*
Y0026859D01*
X-0038818Y0026915D01*
X-0038380Y0027192D02*
Y0026859D01*
X-0038352Y0027192D02*
X-0038519D01*
X-0038574Y0027081D01*
Y0026970D01*
X-0038519Y0026859D01*
X-0038352D01*
X-0048924Y0022733D02*
X-0049147D01*
X-0048924Y0022955D01*
Y0023010D01*
X-0048952Y0023066D01*
X-0049119D01*
X-0049147Y0023010D01*
X-0049334Y0023066D02*
Y0022733D01*
X-0049390Y0022788D01*
X-0049501Y0023010D01*
X-0049557Y0023066D01*
Y0022733D01*
X-0049744Y0022788D02*
X-0049772Y0022733D01*
X-0049939D01*
X-0049967Y0022788D01*
Y0023010D01*
X-0049939Y0023066D01*
X-0049772D01*
X-0049744Y0023010D01*
X-0046659Y0023232D02*
X-0046826D01*
X-0046853Y0023288D01*
Y0023399D01*
X-0046826Y0023455D01*
X-0046659D01*
X-0046631Y0023399D01*
Y0023344D01*
X-0046853D01*
X-0047069Y0023455D02*
X-0047236D01*
X-0047263Y0023399D01*
X-0047236Y0023344D01*
X-0047069D01*
X-0047041Y0023288D01*
X-0047069Y0023232D01*
X-0047236D01*
X-0047451D02*
Y0023399D01*
X-0047479Y0023455D01*
X-0047646D01*
Y0023232D01*
X-0047861D02*
X-0048028D01*
X-0048056Y0023288D01*
Y0023399D01*
X-0048028Y0023455D01*
X-0047861D01*
X-0047833Y0023399D01*
Y0023344D01*
X-0048056D01*
X-0048271Y0023455D02*
X-0048438D01*
X-0048466Y0023399D01*
X-0048438Y0023344D01*
X-0048271D01*
X-0048243Y0023288D01*
X-0048271Y0023232D01*
X-0048438D01*
X-0048653Y0023121D02*
X-0048876D01*
X-0049258Y0023232D02*
Y0023566D01*
X-0049286Y0023232D02*
X-0049119D01*
X-0049063Y0023288D01*
Y0023344D01*
X-0049091Y0023399D01*
X-0049258D02*
X-0049091D01*
X-0049063Y0023455D01*
Y0023510D01*
X-0049119Y0023566D01*
X-0049286D01*
X-0049473Y0023510D02*
X-0049501Y0023566D01*
X-0049668D01*
X-0049696Y0023510D01*
Y0023455D01*
X-0049668Y0023399D01*
X-0049501D01*
X-0049473Y0023344D01*
Y0023288D01*
X-0049501Y0023232D01*
X-0049668D01*
X-0049696Y0023288D01*
X-0049883Y0023566D02*
Y0023288D01*
X-0049911Y0023232D01*
X-0050078D01*
X-0050106Y0023288D01*
Y0023566D01*
X-0045038Y0029665D02*
X-0044983Y0029693D01*
Y0029860D01*
X-0045038Y0029888D01*
X-0045149D01*
X-0045205Y0029832D01*
Y0029665D01*
X-0045316D01*
Y0029888D01*
X-0045094Y0029283D02*
X-0045038D01*
X-0044983Y0029311D01*
Y0029422D01*
X-0045038Y0029450D01*
X-0045316D01*
Y0029478D02*
Y0029366D01*
X-0045705Y0031333D02*
Y0031222D01*
X-0045649Y0031194D01*
Y0031139D01*
X-0045705D02*
X-0045482D01*
Y0030923D02*
Y0030756D01*
X-0045538Y0030729D01*
X-0045649D01*
X-0045705Y0030756D01*
Y0030923D01*
X-0045649Y0030951D01*
X-0045594D01*
Y0030729D01*
X-0045371Y0030346D02*
X-0045705D01*
Y0030513D01*
X-0045649Y0030541D01*
X-0045538D01*
X-0045482Y0030513D01*
Y0030346D01*
Y0030048D02*
X-0045649D01*
X-0045482Y0030159D02*
X-0045649D01*
X-0045705Y0030131D01*
Y0030075D01*
X-0045649Y0030048D01*
X-0045705Y0030020D01*
Y0029964D01*
X-0045649Y0029936D01*
X-0045482D01*
X-0045705Y0029721D02*
X-0045482D01*
Y0029749D02*
Y0029554D01*
X-0045538Y0029526D01*
X-0045705D01*
X-0045594Y0029144D02*
X-0045538D01*
X-0045482Y0029172D01*
Y0029283D01*
X-0045538Y0029311D01*
X-0045816D01*
Y0029339D02*
Y0029228D01*
X-0046232Y0029255D02*
Y0029144D01*
Y0029200D02*
X-0046566D01*
X-0046510Y0029144D01*
X-0046288Y0033089D02*
X-0046232Y0033144D01*
Y0033255D01*
X-0046288Y0033311D01*
X-0046344D01*
X-0046455Y0033200D01*
X-0046566Y0033311D01*
Y0033089D01*
X-0027692Y0023065D02*
Y0023288D01*
X-0027470Y0023065D01*
X-0027415D01*
X-0027359Y0023093D01*
Y0023260D01*
X-0027415Y0023288D01*
X-0027692Y0023670D02*
X-0027359D01*
X-0027692Y0023698D02*
Y0023531D01*
X-0027581Y0023475D01*
X-0027470D01*
X-0027359Y0023531D01*
Y0023698D01*
X-0029019Y0024799D02*
X-0028852D01*
X-0028824Y0024744D01*
Y0024688D01*
X-0028852Y0024633D01*
X-0029019D01*
X-0029047Y0024688D01*
Y0024744D01*
X-0028936Y0024966D01*
X-0029234D02*
Y0024633D01*
X-0029290Y0024688D01*
X-0029401Y0024910D01*
X-0029457Y0024966D01*
Y0024633D01*
X-0029644Y0024688D02*
X-0029672Y0024633D01*
X-0029839D01*
X-0029867Y0024688D01*
Y0024910D01*
X-0029839Y0024966D01*
X-0029672D01*
X-0029644Y0024910D01*
X-0028581Y0025132D02*
X-0028803D01*
X-0028581Y0025355D01*
Y0025410D01*
X-0028609Y0025466D01*
X-0028776D01*
X-0028803Y0025410D01*
X-0029186Y0025132D02*
Y0025466D01*
X-0029213Y0025132D02*
X-0029047D01*
X-0028991Y0025244D01*
Y0025355D01*
X-0029047Y0025466D01*
X-0029213D01*
X-0029457Y0025299D02*
X-0029623D01*
X-0029401Y0025132D02*
X-0029623D01*
Y0025466D01*
X-0029401D01*
X-0029811Y0025132D02*
X-0030006D01*
Y0025466D01*
X-0033651Y0034507D02*
Y0034340D01*
X-0033706Y0034312D01*
X-0033762D01*
X-0033817Y0034340D01*
Y0034507D01*
X-0033762Y0034535D01*
X-0033706D01*
X-0033484Y0034423D01*
X-0033706Y0034917D02*
X-0033762D01*
X-0033817Y0034889D01*
Y0034778D01*
X-0033762Y0034750D01*
X-0033484D01*
Y0034722D02*
Y0034833D01*
X-0033095Y0032867D02*
Y0032978D01*
X-0033151Y0033006D01*
Y0033061D01*
X-0033095D02*
X-0033317D01*
Y0033277D02*
Y0033443D01*
X-0033262Y0033471D01*
X-0033151D01*
X-0033095Y0033443D01*
Y0033277D01*
X-0033151Y0033249D01*
X-0033206D01*
Y0033471D01*
X-0033429Y0033853D02*
X-0033095D01*
Y0033687D01*
X-0033151Y0033659D01*
X-0033262D01*
X-0033317Y0033687D01*
Y0033853D01*
Y0034152D02*
X-0033151D01*
X-0033317Y0034041D02*
X-0033151D01*
X-0033095Y0034069D01*
Y0034124D01*
X-0033151Y0034152D01*
X-0033095Y0034180D01*
Y0034236D01*
X-0033151Y0034263D01*
X-0033317D01*
X-0033095Y0034479D02*
X-0033317D01*
Y0034451D02*
Y0034646D01*
X-0033262Y0034673D01*
X-0033095D01*
X-0033206Y0035056D02*
X-0033262D01*
X-0033317Y0035028D01*
Y0034917D01*
X-0033262Y0034889D01*
X-0032984D01*
Y0034861D02*
Y0034972D01*
X-0025512Y0024825D02*
X-0025387D01*
Y0025575D01*
X-0025512D01*
Y0024825D01*
X-0028500Y0039500D02*
Y0038500D01*
X-0053500D01*
Y0039500D01*
X-0028500D01*
X-0044500Y0034200D02*
Y0033200D01*
X-0045500D01*
Y0034200D01*
X-0044500D01*
X-0028700Y0025700D02*
Y0024700D01*
X-0029700D01*
Y0025700D01*
X-0028700D01*
X-0028500Y0022500D02*
Y0021500D01*
X-0053500D01*
Y0022500D01*
X-0028500D01*
X-0028700Y0029200D02*
Y0028200D01*
X-0029700D01*
Y0029200D01*
X-0028700D01*
X-0028500Y0038500D02*
Y0037500D01*
X-0053500D01*
Y0038500D01*
X-0028500D01*
Y0023500D02*
Y0022500D01*
X-0053500D01*
Y0023500D01*
X-0028500D01*
X-0028700Y0028000D02*
Y0027000D01*
X-0029700D01*
Y0028000D01*
X-0028700D01*
X-0050500Y0036800D02*
Y0035800D01*
X-0051500D01*
Y0036800D01*
X-0050500D01*
X-0025450Y0028025D02*
Y0028775D01*
X-0027012D01*
Y0028025D01*
X-0025450D01*
X-0025512D02*
X-0025387D01*
Y0028775D01*
X-0025512D01*
Y0028025D01*
X-0025450Y0025925D02*
Y0026675D01*
X-0027012D01*
Y0025925D01*
X-0025450D01*
X-0025512D02*
X-0025387D01*
Y0026675D01*
X-0025512D01*
Y0025925D01*
X-0048800Y0024900D02*
Y0023900D01*
X-0049800D01*
Y0024900D01*
X-0048800D01*
X-0046900Y0032700D02*
X-0045900D01*
Y0029700D01*
X-0046900D01*
Y0032700D01*
X-0028700Y0026800D02*
Y0025800D01*
X-0029700D01*
Y0026800D01*
X-0028700D01*
X-0025450Y0027025D02*
Y0027775D01*
X-0027012D01*
Y0027025D01*
X-0025450D01*
X-0025512D02*
X-0025387D01*
Y0027775D01*
X-0025512D01*
Y0027025D01*
X-0031900Y0031500D02*
X-0032900D01*
Y0034500D01*
X-0031900D01*
Y0031500D01*
X-0025450Y0024825D02*
Y0025575D01*
X-0027012D01*
Y0024825D01*
X-0025450D01*
G54D47*
G01X-0026318Y0025783D02*
X-0026429D01*
X-0026373D02*
Y0026116D01*
X-0026429Y0026060D01*
X-0026632Y0025783D02*
X-0026827D01*
Y0026116D01*
X-0027169Y0025783D02*
Y0026116D01*
X-0027197Y0025783D02*
X-0027030D01*
X-0026974Y0025894D01*
Y0026005D01*
X-0027030Y0026116D01*
X-0027197D01*
X-0026596Y0024782D02*
Y0025116D01*
X-0026623Y0024782D02*
X-0026457D01*
X-0026401Y0024894D01*
Y0025005D01*
X-0026457Y0025116D01*
X-0026623D01*
X-0026827Y0024949D02*
X-0026993D01*
X-0026771Y0024782D02*
X-0026993D01*
Y0025116D01*
X-0026771D01*
X-0027141Y0024782D02*
X-0027336D01*
Y0025116D01*
X-0046667Y0036380D02*
Y0036602D01*
X-0046445Y0036380D01*
X-0046389D01*
X-0046334Y0036408D01*
Y0036575D01*
X-0046389Y0036602D01*
X-0046667Y0036750D02*
Y0036861D01*
Y0036806D02*
X-0046334D01*
X-0046389Y0036861D01*
X-0046501Y0037148D02*
X-0046667Y0037064D01*
X-0046501Y0037287D02*
Y0037120D01*
X-0046445Y0037064D01*
X-0046389D01*
X-0046334Y0037120D01*
Y0037287D01*
X-0046667D01*
X-0047556Y0036602D02*
Y0036658D01*
X-0047667Y0036491D02*
X-0047556Y0036602D01*
X-0047445Y0036491D01*
X-0047667Y0036658D02*
X-0047334D01*
X-0047667Y0037000D02*
X-0047334Y0036833D01*
Y0037056D01*
X-0047556Y0037203D02*
Y0037426D01*
X-0047334Y0037314D01*
Y0037259D01*
X-0047667D01*
X-0044353Y0028205D02*
Y0027983D01*
X-0044575Y0028205D01*
X-0044630D01*
X-0044686Y0028178D01*
Y0028011D01*
X-0044630Y0027983D01*
X-0044464Y0027724D02*
X-0044353Y0027835D01*
X-0044408Y0027613D02*
X-0044353Y0027641D01*
Y0027752D01*
X-0044408Y0027780D01*
X-0044464Y0027835D01*
X-0044630D01*
X-0044686Y0027808D01*
Y0027641D01*
X-0044630Y0027613D01*
X-0044408D01*
X-0044908Y0029959D02*
X-0044853Y0029986D01*
Y0030153D01*
X-0044908Y0030181D01*
X-0045019D01*
X-0045075Y0030125D01*
Y0029959D01*
X-0045186D01*
Y0030181D01*
X-0044853Y0029811D02*
Y0029589D01*
X-0045075Y0029811D01*
X-0045130D01*
X-0045186Y0029783D01*
Y0029616D01*
X-0045130Y0029589D01*
X-0045019Y0029441D02*
Y0029219D01*
X-0044853Y0028904D02*
X-0045186Y0029071D01*
Y0028849D01*
X-0044853Y0028701D02*
Y0028590D01*
Y0028645D02*
X-0045186D01*
X-0045130Y0028590D01*
X-0045019Y0028359D02*
X-0045075Y0028387D01*
X-0045130D01*
X-0045186Y0028359D01*
Y0028192D01*
X-0045130Y0028164D01*
X-0045075D01*
X-0045019Y0028192D01*
Y0028359D01*
X-0044964Y0028387D01*
X-0044908D01*
X-0044853Y0028359D01*
Y0028192D01*
X-0044908Y0028164D01*
X-0044964D01*
X-0045019Y0028192D01*
X-0044908Y0028017D02*
X-0044853Y0027989D01*
Y0027822D01*
X-0044908Y0027794D01*
X-0045130D01*
X-0045186Y0027822D01*
Y0027989D01*
X-0045130Y0028017D01*
X-0044853Y0027452D02*
X-0045186D01*
X-0044853Y0027424D02*
Y0027591D01*
X-0044908Y0027647D01*
X-0044964D01*
X-0045019Y0027619D01*
Y0027452D02*
Y0027619D01*
X-0045075Y0027647D01*
X-0045130D01*
X-0045186Y0027591D01*
Y0027424D01*
X-0045667Y0036436D02*
Y0036547D01*
Y0036491D02*
X-0045334D01*
X-0045389Y0036547D01*
X-0045667Y0036750D02*
Y0036861D01*
Y0036806D02*
X-0045334D01*
X-0045389Y0036861D01*
X-0045501Y0037148D02*
X-0045667Y0037064D01*
X-0045501Y0037287D02*
Y0037120D01*
X-0045445Y0037064D01*
X-0045389D01*
X-0045334Y0037120D01*
Y0037287D01*
X-0045667D01*
X-0046556Y0036602D02*
Y0036658D01*
X-0046667Y0036491D02*
X-0046556Y0036602D01*
X-0046445Y0036491D01*
X-0046667Y0036658D02*
X-0046334D01*
X-0046667Y0037000D02*
X-0046334Y0036833D01*
Y0037056D01*
X-0046556Y0037203D02*
Y0037426D01*
X-0046334Y0037314D01*
Y0037259D01*
X-0046667D01*
X-0051667Y0036519D02*
X-0051612Y0036575D01*
X-0051556Y0036602D01*
X-0051445D01*
X-0051389Y0036575D01*
X-0051334Y0036519D01*
Y0036463D01*
X-0051389Y0036408D01*
X-0051445Y0036380D01*
X-0051556D01*
X-0051612Y0036408D01*
X-0051667Y0036463D01*
Y0036519D01*
Y0036750D02*
Y0036861D01*
Y0036806D02*
X-0051334D01*
X-0051389Y0036861D01*
X-0051501Y0037148D02*
X-0051667Y0037064D01*
X-0051501Y0037287D02*
Y0037120D01*
X-0051445Y0037064D01*
X-0051389D01*
X-0051334Y0037120D01*
Y0037287D01*
X-0051667D01*
X-0052556Y0036602D02*
Y0036658D01*
X-0052667Y0036491D02*
X-0052556Y0036602D01*
X-0052445Y0036491D01*
X-0052667Y0036658D02*
X-0052334D01*
X-0052667Y0037000D02*
X-0052334Y0036833D01*
Y0037056D01*
X-0052556Y0037203D02*
Y0037426D01*
X-0052334Y0037314D01*
Y0037259D01*
X-0052667D01*
X-0036289Y0032249D02*
X-0036122D01*
X-0036094Y0032194D01*
Y0032138D01*
X-0036122Y0032083D01*
X-0036289D01*
X-0036317Y0032138D01*
Y0032194D01*
X-0036206Y0032416D01*
X-0036464Y0032138D02*
X-0036492Y0032083D01*
X-0036659D01*
X-0036687Y0032138D01*
Y0032360D01*
X-0036659Y0032416D01*
X-0036492D01*
X-0036464Y0032360D01*
X-0035577Y0031082D02*
Y0031249D01*
X-0035605Y0031305D01*
X-0035771D01*
Y0031082D01*
X-0036058D02*
X-0036113Y0031138D01*
X-0036141Y0031194D01*
Y0031305D01*
X-0036113Y0031360D01*
X-0036058Y0031416D01*
X-0036002D01*
X-0035947Y0031360D01*
X-0035919Y0031305D01*
Y0031194D01*
X-0035947Y0031138D01*
X-0036002Y0031082D01*
X-0036058D01*
X-0036428D02*
X-0036483Y0031138D01*
X-0036511Y0031194D01*
Y0031305D01*
X-0036483Y0031360D01*
X-0036428Y0031416D01*
X-0036372D01*
X-0036317Y0031360D01*
X-0036289Y0031305D01*
Y0031194D01*
X-0036317Y0031138D01*
X-0036372Y0031082D01*
X-0036428D01*
X-0036659D02*
X-0036770D01*
X-0036714D02*
Y0031416D01*
X-0036770Y0031360D01*
X-0048050Y0028047D02*
X-0047939D01*
X-0047994D02*
Y0027714D01*
X-0047939Y0027769D01*
X-0047624Y0027936D02*
X-0047735Y0028047D01*
X-0047513Y0027992D02*
X-0047541Y0028047D01*
X-0047652D01*
X-0047680Y0027992D01*
X-0047735Y0027936D01*
Y0027769D01*
X-0047708Y0027714D01*
X-0047541D01*
X-0047513Y0027769D01*
Y0027992D01*
X-0049859Y0027492D02*
X-0049886Y0027547D01*
X-0050053D01*
X-0050081Y0027492D01*
Y0027381D01*
X-0050025Y0027325D01*
X-0049859D01*
Y0027214D01*
X-0050081D01*
X-0049711Y0027547D02*
X-0049489D01*
X-0049711Y0027325D01*
Y0027269D01*
X-0049683Y0027214D01*
X-0049516D01*
X-0049489Y0027269D01*
X-0049341Y0027381D02*
X-0049119D01*
X-0048804Y0027547D02*
X-0048971Y0027214D01*
X-0048749D01*
X-0048601Y0027547D02*
X-0048490D01*
X-0048545D02*
Y0027214D01*
X-0048490Y0027269D01*
X-0048259Y0027381D02*
X-0048287Y0027325D01*
Y0027269D01*
X-0048259Y0027214D01*
X-0048092D01*
X-0048064Y0027269D01*
Y0027325D01*
X-0048092Y0027381D01*
X-0048259D01*
X-0048287Y0027436D01*
Y0027492D01*
X-0048259Y0027547D01*
X-0048092D01*
X-0048064Y0027492D01*
Y0027436D01*
X-0048092Y0027381D01*
X-0047917Y0027492D02*
X-0047889Y0027547D01*
X-0047722D01*
X-0047694Y0027492D01*
Y0027269D01*
X-0047722Y0027214D01*
X-0047889D01*
X-0047917Y0027269D01*
X-0047352Y0027547D02*
Y0027214D01*
X-0047324Y0027547D02*
X-0047491D01*
X-0047547Y0027492D01*
Y0027436D01*
X-0047519Y0027381D01*
X-0047352D02*
X-0047519D01*
X-0047547Y0027325D01*
Y0027269D01*
X-0047491Y0027214D01*
X-0047324D01*
X-0048501Y0036722D02*
Y0036889D01*
X-0048445Y0036917D01*
X-0048389D01*
X-0048334Y0036889D01*
Y0036722D01*
X-0048389Y0036694D01*
X-0048445D01*
X-0048667Y0036806D01*
X-0048501Y0037148D02*
X-0048667Y0037064D01*
X-0048501Y0037287D02*
Y0037120D01*
X-0048445Y0037064D01*
X-0048389D01*
X-0048334Y0037120D01*
Y0037287D01*
X-0048667D01*
X-0049556Y0036602D02*
Y0036658D01*
X-0049667Y0036491D02*
X-0049556Y0036602D01*
X-0049445Y0036491D01*
X-0049667Y0036658D02*
X-0049334D01*
X-0049667Y0037000D02*
X-0049334Y0036833D01*
Y0037056D01*
X-0049556Y0037203D02*
Y0037426D01*
X-0049334Y0037314D01*
Y0037259D01*
X-0049667D01*
X-0050547Y0024383D02*
X-0050380Y0024716D01*
X-0050602D01*
X-0050750Y0024383D02*
X-0050861D01*
X-0050806D02*
Y0024716D01*
X-0050861Y0024660D01*
X-0051148Y0024549D02*
X-0051064Y0024383D01*
X-0051287Y0024549D02*
X-0051120D01*
X-0051064Y0024605D01*
Y0024660D01*
X-0051120Y0024716D01*
X-0051287D01*
Y0024383D01*
X-0050602Y0023494D02*
X-0050658D01*
X-0050491Y0023382D02*
X-0050602Y0023494D01*
X-0050491Y0023605D01*
X-0050658Y0023382D02*
Y0023716D01*
X-0050833Y0023382D02*
X-0051056D01*
X-0050833Y0023605D01*
Y0023660D01*
X-0050861Y0023716D01*
X-0051028D01*
X-0051056Y0023660D01*
X-0051203Y0023382D02*
X-0051426D01*
X-0051203Y0023605D01*
Y0023660D01*
X-0051231Y0023716D01*
X-0051398D01*
X-0051426Y0023660D01*
X-0047501Y0036722D02*
X-0047445Y0036694D01*
X-0047389D01*
X-0047334Y0036722D01*
Y0036889D01*
X-0047389Y0036917D01*
X-0047445D01*
X-0047501Y0036889D01*
Y0036722D01*
X-0047556Y0036694D01*
X-0047612D01*
X-0047667Y0036722D01*
Y0036889D01*
X-0047612Y0036917D01*
X-0047556D01*
X-0047501Y0036889D01*
Y0037148D02*
X-0047667Y0037064D01*
X-0047501Y0037287D02*
Y0037120D01*
X-0047445Y0037064D01*
X-0047389D01*
X-0047334Y0037120D01*
Y0037287D01*
X-0047667D01*
X-0048556Y0036602D02*
Y0036658D01*
X-0048667Y0036491D02*
X-0048556Y0036602D01*
X-0048445Y0036491D01*
X-0048667Y0036658D02*
X-0048334D01*
X-0048667Y0037000D02*
X-0048334Y0036833D01*
Y0037056D01*
X-0048556Y0037203D02*
Y0037426D01*
X-0048334Y0037314D01*
Y0037259D01*
X-0048667D01*
X-0044689Y0026867D02*
X-0044855Y0026534D01*
X-0044633D01*
X-0044402Y0026701D02*
X-0044485Y0026867D01*
X-0044263Y0026701D02*
X-0044430D01*
X-0044485Y0026645D01*
Y0026589D01*
X-0044430Y0026534D01*
X-0044263D01*
Y0026867D01*
X-0044522Y0027756D02*
X-0044466D01*
X-0044633Y0027867D02*
X-0044522Y0027756D01*
X-0044633Y0027645D01*
X-0044466Y0027867D02*
Y0027534D01*
X-0044291Y0027867D02*
X-0044180D01*
X-0044235D02*
Y0027534D01*
X-0044180Y0027590D01*
X-0040794Y0024383D02*
X-0041017D01*
X-0040794Y0024605D01*
Y0024660D01*
X-0040822Y0024716D01*
X-0040989D01*
X-0041017Y0024660D01*
X-0041164Y0024438D02*
X-0041192Y0024383D01*
X-0041359D01*
X-0041387Y0024438D01*
Y0024660D01*
X-0041359Y0024716D01*
X-0041192D01*
X-0041164Y0024660D01*
X-0040332Y0023549D02*
X-0040499D01*
Y0023382D02*
Y0023716D01*
X-0040277D01*
X-0040841Y0023271D02*
Y0023605D01*
X-0040675D01*
X-0040647Y0023549D01*
Y0023438D01*
X-0040675Y0023382D01*
X-0040841D01*
X-0041017Y0023549D02*
X-0040989Y0023605D01*
Y0023660D01*
X-0041017Y0023716D01*
X-0041183D01*
X-0041211Y0023660D01*
Y0023605D01*
X-0041183Y0023549D01*
X-0041017D01*
X-0040989Y0023494D01*
Y0023438D01*
X-0041017Y0023382D01*
X-0041183D01*
X-0041211Y0023438D01*
Y0023494D01*
X-0041183Y0023549D01*
X-0041359Y0023382D02*
X-0041470D01*
X-0041414D02*
Y0023716D01*
X-0041470Y0023660D01*
X-0050675Y0024401D02*
X-0050842D01*
X-0050870Y0024456D01*
Y0024512D01*
X-0050842Y0024567D01*
X-0050675D01*
X-0050647Y0024512D01*
Y0024456D01*
X-0050759Y0024234D01*
X-0050500Y0024567D02*
X-0050389D01*
X-0050444D02*
Y0024234D01*
X-0050389Y0024289D01*
X-0050102Y0024401D02*
X-0050185Y0024567D01*
X-0049963Y0024401D02*
X-0050130D01*
X-0050185Y0024345D01*
Y0024289D01*
X-0050130Y0024234D01*
X-0049963D01*
Y0024567D01*
X-0050592Y0025456D02*
X-0050536D01*
X-0050703Y0025567D02*
X-0050592Y0025456D01*
X-0050703Y0025345D01*
X-0050536Y0025567D02*
Y0025234D01*
X-0050139Y0025512D02*
X-0050166Y0025567D01*
X-0050333D01*
X-0050361Y0025512D01*
Y0025401D01*
X-0050305Y0025345D01*
X-0050139D01*
Y0025234D01*
X-0050361D01*
X-0049991Y0025567D02*
X-0049880D01*
X-0049935D02*
Y0025234D01*
X-0049880Y0025290D01*
X-0046411Y0026701D02*
X-0046578D01*
X-0046605Y0026756D01*
Y0026812D01*
X-0046578Y0026867D01*
X-0046411D01*
X-0046383Y0026812D01*
Y0026756D01*
X-0046494Y0026534D01*
X-0046152Y0026701D02*
X-0046235Y0026867D01*
X-0046013Y0026701D02*
X-0046180D01*
X-0046235Y0026645D01*
Y0026589D01*
X-0046180Y0026534D01*
X-0046013D01*
Y0026867D01*
X-0046642Y0027756D02*
X-0046586D01*
X-0046753Y0027867D02*
X-0046642Y0027756D01*
X-0046753Y0027645D01*
X-0046586Y0027867D02*
Y0027534D01*
X-0046272Y0027867D02*
X-0046216Y0027812D01*
X-0046189Y0027756D01*
Y0027645D01*
X-0046216Y0027590D01*
X-0046272Y0027534D01*
X-0046328D01*
X-0046383Y0027590D01*
X-0046411Y0027645D01*
Y0027756D01*
X-0046383Y0027812D01*
X-0046328Y0027867D01*
X-0046272D01*
X-0046041D02*
X-0045930D01*
X-0045985D02*
Y0027534D01*
X-0045930Y0027590D01*
X-0048467Y0029488D02*
X-0048439Y0029433D01*
X-0048272D01*
X-0048244Y0029488D01*
Y0029599D01*
X-0048300Y0029655D01*
X-0048467D01*
Y0029766D01*
X-0048244D01*
X-0048698Y0029599D02*
X-0048614Y0029433D01*
X-0048837Y0029599D02*
X-0048670D01*
X-0048614Y0029655D01*
Y0029710D01*
X-0048670Y0029766D01*
X-0048837D01*
Y0029433D01*
X-0047838Y0028544D02*
X-0047893D01*
X-0047727Y0028432D02*
X-0047838Y0028544D01*
X-0047727Y0028655D01*
X-0047893Y0028432D02*
Y0028766D01*
X-0048208Y0028432D02*
X-0048263Y0028488D01*
X-0048291Y0028544D01*
Y0028655D01*
X-0048263Y0028710D01*
X-0048208Y0028766D01*
X-0048152D01*
X-0048097Y0028710D01*
X-0048069Y0028655D01*
Y0028544D01*
X-0048097Y0028488D01*
X-0048152Y0028432D01*
X-0048208D01*
X-0048578D02*
X-0048633Y0028488D01*
X-0048661Y0028544D01*
Y0028655D01*
X-0048633Y0028710D01*
X-0048578Y0028766D01*
X-0048522D01*
X-0048467Y0028710D01*
X-0048439Y0028655D01*
Y0028544D01*
X-0048467Y0028488D01*
X-0048522Y0028432D01*
X-0048578D01*
X-0048809D02*
X-0048920D01*
X-0048864D02*
Y0028766D01*
X-0048920Y0028710D01*
X-0027747Y0028788D02*
X-0027691Y0028733D01*
X-0027580D01*
X-0027524Y0028788D01*
Y0028844D01*
X-0027636Y0028955D01*
X-0027524Y0029066D01*
X-0027747D01*
X-0027894Y0028733D02*
X-0028117D01*
X-0027894Y0028955D01*
Y0029010D01*
X-0027922Y0029066D01*
X-0028089D01*
X-0028117Y0029010D01*
X-0028348Y0028899D02*
X-0028264Y0028733D01*
X-0028487Y0028899D02*
X-0028320D01*
X-0028264Y0028955D01*
Y0029010D01*
X-0028320Y0029066D01*
X-0028487D01*
Y0028733D01*
X-0027802Y0027732D02*
X-0027858Y0027788D01*
X-0027886Y0027844D01*
Y0027955D01*
X-0027858Y0028010D01*
X-0027802Y0028066D01*
X-0027747D01*
X-0027691Y0028010D01*
X-0027663Y0027955D01*
Y0027844D01*
X-0027691Y0027788D01*
X-0027747Y0027732D01*
X-0027802D01*
X-0028033D02*
X-0028256D01*
X-0028033Y0027955D01*
Y0028010D01*
X-0028061Y0028066D01*
X-0028228D01*
X-0028256Y0028010D01*
X-0028403Y0027732D02*
X-0028626D01*
X-0028403Y0027955D01*
Y0028010D01*
X-0028431Y0028066D01*
X-0028598D01*
X-0028626Y0028010D01*
X-0042400Y0024383D02*
X-0042511D01*
X-0042456D02*
Y0024716D01*
X-0042511Y0024660D01*
X-0042714Y0024438D02*
X-0042742Y0024383D01*
X-0042909D01*
X-0042937Y0024438D01*
Y0024660D01*
X-0042909Y0024716D01*
X-0042742D01*
X-0042714Y0024660D01*
X-0041882Y0023549D02*
X-0042049D01*
Y0023382D02*
Y0023716D01*
X-0041827D01*
X-0042391Y0023271D02*
Y0023605D01*
X-0042225D01*
X-0042197Y0023549D01*
Y0023438D01*
X-0042225Y0023382D01*
X-0042391D01*
X-0042567Y0023549D02*
X-0042539Y0023605D01*
Y0023660D01*
X-0042567Y0023716D01*
X-0042733D01*
X-0042761Y0023660D01*
Y0023605D01*
X-0042733Y0023549D01*
X-0042567D01*
X-0042539Y0023494D01*
Y0023438D01*
X-0042567Y0023382D01*
X-0042733D01*
X-0042761Y0023438D01*
Y0023494D01*
X-0042733Y0023549D01*
X-0042909Y0023382D02*
X-0043020D01*
X-0042964D02*
Y0023716D01*
X-0043020Y0023660D01*
X-0026262Y0029094D02*
X-0026485D01*
X-0026373Y0029316D01*
X-0026318D01*
Y0028983D01*
X-0026632D02*
X-0026827D01*
Y0029316D01*
X-0027169Y0028983D02*
Y0029316D01*
X-0027197Y0028983D02*
X-0027030D01*
X-0026974Y0029094D01*
Y0029205D01*
X-0027030Y0029316D01*
X-0027197D01*
X-0026596Y0027982D02*
Y0028316D01*
X-0026623Y0027982D02*
X-0026457D01*
X-0026401Y0028094D01*
Y0028205D01*
X-0026457Y0028316D01*
X-0026623D01*
X-0026827Y0028149D02*
X-0026993D01*
X-0026771Y0027982D02*
X-0026993D01*
Y0028316D01*
X-0026771D01*
X-0027141Y0027982D02*
X-0027336D01*
Y0028316D01*
X-0050555Y0025406D02*
X-0050333D01*
X-0050444Y0025184D01*
X-0050500D01*
Y0025517D01*
X-0050102Y0025351D02*
X-0050185Y0025517D01*
X-0049963Y0025351D02*
X-0050130D01*
X-0050185Y0025295D01*
Y0025239D01*
X-0050130Y0025184D01*
X-0049963D01*
Y0025517D01*
X-0050592Y0026406D02*
X-0050536D01*
X-0050703Y0026517D02*
X-0050592Y0026406D01*
X-0050703Y0026295D01*
X-0050536Y0026517D02*
Y0026184D01*
X-0050222Y0026517D02*
X-0050166Y0026462D01*
X-0050139Y0026406D01*
Y0026295D01*
X-0050166Y0026240D01*
X-0050222Y0026184D01*
X-0050278D01*
X-0050333Y0026240D01*
X-0050361Y0026295D01*
Y0026406D01*
X-0050333Y0026462D01*
X-0050278Y0026517D01*
X-0050222D01*
X-0049991D02*
X-0049880D01*
X-0049935D02*
Y0026184D01*
X-0049880Y0026240D01*
X-0027580Y0026744D02*
X-0027802D01*
X-0027691Y0026966D01*
X-0027636D01*
Y0026633D01*
X-0027950D02*
X-0028061D01*
X-0028006D02*
Y0026966D01*
X-0028061Y0026910D01*
X-0028348Y0026799D02*
X-0028264Y0026633D01*
X-0028487Y0026799D02*
X-0028320D01*
X-0028264Y0026855D01*
Y0026910D01*
X-0028320Y0026966D01*
X-0028487D01*
Y0026633D01*
X-0027802Y0025632D02*
X-0027858Y0025688D01*
X-0027886Y0025744D01*
Y0025855D01*
X-0027858Y0025910D01*
X-0027802Y0025966D01*
X-0027747D01*
X-0027691Y0025910D01*
X-0027663Y0025855D01*
Y0025744D01*
X-0027691Y0025688D01*
X-0027747Y0025632D01*
X-0027802D01*
X-0028033D02*
X-0028256D01*
X-0028033Y0025855D01*
Y0025910D01*
X-0028061Y0025966D01*
X-0028228D01*
X-0028256Y0025910D01*
X-0028403Y0025632D02*
X-0028626D01*
X-0028403Y0025855D01*
Y0025910D01*
X-0028431Y0025966D01*
X-0028598D01*
X-0028626Y0025910D01*
X-0050917Y0029488D02*
X-0050861Y0029433D01*
X-0050750D01*
X-0050694Y0029488D01*
Y0029544D01*
X-0050806Y0029655D01*
X-0050694Y0029766D01*
X-0050917D01*
X-0051148Y0029599D02*
X-0051064Y0029433D01*
X-0051287Y0029599D02*
X-0051120D01*
X-0051064Y0029655D01*
Y0029710D01*
X-0051120Y0029766D01*
X-0051287D01*
Y0029433D01*
X-0050769Y0028488D02*
X-0050741Y0028432D01*
X-0050575D01*
X-0050547Y0028488D01*
Y0028599D01*
X-0050602Y0028655D01*
X-0050769D01*
Y0028766D01*
X-0050547D01*
X-0051028Y0028544D02*
X-0051083D01*
X-0050917Y0028432D02*
X-0051028Y0028544D01*
X-0050917Y0028655D01*
X-0051083Y0028432D02*
Y0028766D01*
X-0051259Y0028432D02*
X-0051370D01*
X-0051314D02*
Y0028766D01*
X-0051370Y0028710D01*
X-0026262Y0026883D02*
X-0026485D01*
X-0026262Y0027105D01*
Y0027160D01*
X-0026290Y0027216D01*
X-0026457D01*
X-0026485Y0027160D01*
X-0026632Y0026883D02*
X-0026827D01*
Y0027216D01*
X-0027169Y0026883D02*
Y0027216D01*
X-0027197Y0026883D02*
X-0027030D01*
X-0026974Y0026994D01*
Y0027105D01*
X-0027030Y0027216D01*
X-0027197D01*
X-0026596Y0025882D02*
Y0026216D01*
X-0026623Y0025882D02*
X-0026457D01*
X-0026401Y0025994D01*
Y0026105D01*
X-0026457Y0026216D01*
X-0026623D01*
X-0026827Y0026049D02*
X-0026993D01*
X-0026771Y0025882D02*
X-0026993D01*
Y0026216D01*
X-0026771D01*
X-0027141Y0025882D02*
X-0027336D01*
Y0026216D01*
X-0050750Y0027283D02*
X-0050861D01*
X-0050806D02*
Y0027616D01*
X-0050861Y0027560D01*
X-0051148Y0027449D02*
X-0051064Y0027283D01*
X-0051287Y0027449D02*
X-0051120D01*
X-0051064Y0027505D01*
Y0027560D01*
X-0051120Y0027616D01*
X-0051287D01*
Y0027283D01*
X-0051000Y0026282D02*
X-0050833Y0026616D01*
X-0051056D01*
X-0051203Y0026282D02*
X-0051426D01*
X-0051203Y0026505D01*
Y0026560D01*
X-0051231Y0026616D01*
X-0051398D01*
X-0051426Y0026560D01*
X-0027802Y0025588D02*
X-0027747Y0025533D01*
X-0027636D01*
X-0027580Y0025588D01*
Y0025644D01*
X-0027691Y0025755D01*
X-0027580Y0025866D01*
X-0027802D01*
X-0027950Y0025533D02*
X-0028061D01*
X-0028006D02*
Y0025866D01*
X-0028061Y0025810D01*
X-0028348Y0025699D02*
X-0028264Y0025533D01*
X-0028487Y0025699D02*
X-0028320D01*
X-0028264Y0025755D01*
Y0025810D01*
X-0028320Y0025866D01*
X-0028487D01*
Y0025533D01*
X-0027802Y0024532D02*
X-0027858Y0024588D01*
X-0027886Y0024644D01*
Y0024755D01*
X-0027858Y0024810D01*
X-0027802Y0024866D01*
X-0027747D01*
X-0027691Y0024810D01*
X-0027663Y0024755D01*
Y0024644D01*
X-0027691Y0024588D01*
X-0027747Y0024532D01*
X-0027802D01*
X-0028033D02*
X-0028256D01*
X-0028033Y0024755D01*
Y0024810D01*
X-0028061Y0024866D01*
X-0028228D01*
X-0028256Y0024810D01*
X-0028403Y0024532D02*
X-0028626D01*
X-0028403Y0024755D01*
Y0024810D01*
X-0028431Y0024866D01*
X-0028598D01*
X-0028626Y0024810D01*
X-0027524Y0027733D02*
X-0027747D01*
X-0027524Y0027955D01*
Y0028010D01*
X-0027552Y0028066D01*
X-0027719D01*
X-0027747Y0028010D01*
X-0027894Y0027733D02*
X-0028117D01*
X-0027894Y0027955D01*
Y0028010D01*
X-0027922Y0028066D01*
X-0028089D01*
X-0028117Y0028010D01*
X-0028348Y0027899D02*
X-0028264Y0027733D01*
X-0028487Y0027899D02*
X-0028320D01*
X-0028264Y0027955D01*
Y0028010D01*
X-0028320Y0028066D01*
X-0028487D01*
Y0027733D01*
X-0027802Y0026732D02*
X-0027858Y0026788D01*
X-0027886Y0026844D01*
Y0026955D01*
X-0027858Y0027010D01*
X-0027802Y0027066D01*
X-0027747D01*
X-0027691Y0027010D01*
X-0027663Y0026955D01*
Y0026844D01*
X-0027691Y0026788D01*
X-0027747Y0026732D01*
X-0027802D01*
X-0028033D02*
X-0028256D01*
X-0028033Y0026955D01*
Y0027010D01*
X-0028061Y0027066D01*
X-0028228D01*
X-0028256Y0027010D01*
X-0028403Y0026732D02*
X-0028626D01*
X-0028403Y0026955D01*
Y0027010D01*
X-0028431Y0027066D01*
X-0028598D01*
X-0028626Y0027010D01*
X-0050694Y0028383D02*
X-0050917D01*
X-0050694Y0028605D01*
Y0028660D01*
X-0050722Y0028716D01*
X-0050889D01*
X-0050917Y0028660D01*
X-0051148Y0028549D02*
X-0051064Y0028383D01*
X-0051287Y0028549D02*
X-0051120D01*
X-0051064Y0028605D01*
Y0028660D01*
X-0051120Y0028716D01*
X-0051287D01*
Y0028383D01*
X-0051000Y0027382D02*
X-0050833Y0027716D01*
X-0051056D01*
X-0051203Y0027382D02*
X-0051426D01*
X-0051203Y0027605D01*
Y0027660D01*
X-0051231Y0027716D01*
X-0051398D01*
X-0051426Y0027660D01*
X-0026485Y0028038D02*
X-0026429Y0027983D01*
X-0026318D01*
X-0026262Y0028038D01*
Y0028094D01*
X-0026373Y0028205D01*
X-0026262Y0028316D01*
X-0026485D01*
X-0026632Y0027983D02*
X-0026827D01*
Y0028316D01*
X-0027169Y0027983D02*
Y0028316D01*
X-0027197Y0027983D02*
X-0027030D01*
X-0026974Y0028094D01*
Y0028205D01*
X-0027030Y0028316D01*
X-0027197D01*
X-0026596Y0026982D02*
Y0027316D01*
X-0026623Y0026982D02*
X-0026457D01*
X-0026401Y0027094D01*
Y0027205D01*
X-0026457Y0027316D01*
X-0026623D01*
X-0026827Y0027149D02*
X-0026993D01*
X-0026771Y0026982D02*
X-0026993D01*
Y0027316D01*
X-0026771D01*
X-0027141Y0026982D02*
X-0027336D01*
Y0027316D01*
X-0047325Y0037195D02*
Y0036045D01*
X-0046680D01*
Y0037195D01*
X-0047325D01*
X-0044800Y0027940D02*
Y0027680D01*
X-0044500D01*
Y0027630D01*
Y0028880D02*
X-0044800D01*
Y0028620D01*
X-0046325Y0037195D02*
Y0036045D01*
X-0045680D01*
Y0037195D01*
X-0046325D01*
X-0052325D02*
Y0036045D01*
X-0051680D01*
Y0037195D01*
X-0052325D01*
X-0036595Y0031425D02*
X-0035445D01*
Y0032070D01*
X-0036595D01*
Y0031425D01*
X-0031555Y0036700D02*
X-0031475Y0036780D01*
X-0029680D01*
X-0031555Y0035300D02*
X-0031475Y0035220D01*
X-0029680D01*
X-0047840Y0027600D02*
X-0047580D01*
Y0027900D01*
X-0047530D01*
X-0048780D02*
Y0027600D01*
X-0048520D01*
X-0049325Y0037195D02*
Y0036045D01*
X-0048680D01*
Y0037195D01*
X-0049325D01*
X-0051195Y0023725D02*
X-0050045D01*
Y0024370D01*
X-0051195D01*
Y0023725D01*
X-0048325Y0037195D02*
Y0036045D01*
X-0047680D01*
Y0037195D01*
X-0048325D01*
X-0044355Y0027525D02*
X-0045505D01*
Y0026880D01*
X-0044355D01*
Y0027525D01*
X-0041295Y0023725D02*
X-0040145D01*
Y0024370D01*
X-0041295D01*
Y0023725D01*
X-0048200Y0033825D02*
Y0031125D01*
X-0048000D01*
Y0030325D01*
X-0051700D01*
Y0030525D01*
X-0052897D01*
Y0030325D01*
X-0054650D01*
X-0054850Y0030525D01*
Y0035375D01*
X-0054650Y0035575D01*
X-0052897D01*
Y0035300D01*
X-0051700D01*
Y0035675D01*
X-0048000D01*
Y0034950D01*
X-0048200D01*
Y0033825D01*
X-0050055Y0025225D02*
X-0051205D01*
Y0024580D01*
X-0050055D01*
Y0025225D01*
X-0046105Y0027525D02*
X-0047255D01*
Y0026880D01*
X-0046105D01*
Y0027525D01*
X-0048745Y0028775D02*
X-0047595D01*
Y0029420D01*
X-0048745D01*
Y0028775D01*
X-0028395Y0028075D02*
X-0027245D01*
Y0028720D01*
X-0028395D01*
Y0028075D01*
X-0042845Y0023725D02*
X-0041695D01*
Y0024370D01*
X-0042845D01*
Y0023725D01*
X-0055668Y0025661D02*
Y0028378D01*
X-0054368D01*
Y0028968D01*
X-0054290D01*
Y0028890D01*
X-0053581D01*
Y0028968D01*
X-0053463D01*
Y0028378D01*
X-0052675D01*
Y0028968D01*
X-0051888D01*
Y0025071D01*
X-0052675D01*
Y0025661D01*
X-0053463D01*
Y0025071D01*
X-0053581D01*
Y0025150D01*
X-0054290D01*
Y0025071D01*
X-0054368D01*
Y0025661D01*
X-0055668D01*
X-0050055Y0026175D02*
X-0051205D01*
Y0025530D01*
X-0050055D01*
Y0026175D01*
X-0028395Y0025975D02*
X-0027245D01*
Y0026620D01*
X-0028395D01*
Y0025975D01*
X-0051195Y0028775D02*
X-0050045D01*
Y0029420D01*
X-0051195D01*
Y0028775D01*
X-0037995Y0026300D02*
X-0038075Y0026220D01*
X-0039870D01*
X-0037995Y0027700D02*
X-0038075Y0027780D01*
X-0039870D01*
X-0034400Y0032000D02*
X-0035300D01*
Y0031500D01*
X-0034400D01*
Y0032000D01*
X-0051195Y0026625D02*
X-0050045D01*
Y0027270D01*
X-0051195D01*
Y0026625D01*
X-0028395Y0024875D02*
X-0027245D01*
Y0025520D01*
X-0028395D01*
Y0024875D01*
X-0026800Y0024055D02*
X-0026720Y0023975D01*
Y0022180D01*
X-0028200Y0024055D02*
X-0028280Y0023975D01*
Y0022180D01*
X-0028395Y0027075D02*
X-0027245D01*
Y0027720D01*
X-0028395D01*
Y0027075D01*
X-0051195Y0027725D02*
X-0050045D01*
Y0028370D01*
X-0051195D01*
Y0027725D01*
G54D49*
G01X-0057407Y0034356D02*
X-0057932D01*
X-0057407Y0034313D02*
Y0034575D01*
X-0057582Y0034663D01*
X-0057757D01*
X-0057932Y0034575D01*
Y0034313D01*
X-0057844Y0034072D02*
X-0057932Y0034028D01*
Y0033766D01*
X-0057844Y0033722D01*
X-0057757D01*
X-0057669Y0033766D01*
Y0034028D01*
X-0057582Y0034072D01*
X-0057494D01*
X-0057407Y0034028D01*
Y0033766D01*
X-0057494Y0033722D01*
X-0057407Y0033176D02*
X-0057494Y0033132D01*
X-0057669D01*
X-0057757Y0033176D01*
Y0033438D01*
X-0057669Y0033482D01*
X-0057494D01*
X-0057407Y0033438D01*
Y0033176D01*
X-0057757Y0032892D02*
Y0032717D01*
X-0057669Y0032673D01*
Y0032585D01*
X-0057757D02*
X-0057407D01*
X-0057757Y0032345D02*
Y0032083D01*
X-0057669Y0032039D01*
X-0057494D01*
X-0057407Y0032083D01*
Y0032345D01*
X-0057931Y0031711D02*
X-0057932D01*
Y0031712D01*
X-0057931D01*
Y0031711D01*
X-0057407Y0031799D02*
Y0031624D01*
Y0031711D02*
X-0057757D01*
Y0031624D01*
X-0057407Y0031340D02*
X-0057932D01*
X-0057844Y0031252D01*
X-0057669Y0031165D01*
X-0057844Y0031077D01*
X-0057932Y0030990D01*
X-0057407D01*
X-0058850Y0032476D02*
Y0032214D01*
X-0058938Y0032170D01*
X-0059025D01*
X-0059113Y0032214D01*
Y0032476D01*
X-0059025Y0032520D01*
X-0058938D01*
X-0058588Y0032345D01*
X-0059113Y0031930D02*
X-0058588D01*
X-0058675Y0031842D01*
X-0059025Y0031667D01*
X-0059113Y0031580D01*
X-0058588D01*
X-0058675Y0031340D02*
X-0058588Y0031296D01*
Y0031033D01*
X-0058675Y0030990D01*
X-0059025D01*
X-0059113Y0031033D01*
Y0031296D01*
X-0059025Y0031340D01*
X-0050993Y0046455D02*
X-0051168Y0046543D01*
X-0051342D01*
X-0051517Y0046455D01*
X-0051080Y0045777D02*
X-0050993Y0045821D01*
Y0046083D01*
X-0051080Y0046127D01*
X-0051255D01*
X-0051342Y0046040D01*
Y0045777D01*
X-0051517D01*
Y0046127D01*
X-0050993Y0045537D02*
Y0045362D01*
Y0045449D02*
X-0051517D01*
X-0051430Y0045362D01*
X-0050993Y0044815D02*
X-0051080Y0044728D01*
X-0051168Y0044684D01*
X-0051342D01*
X-0051430Y0044728D01*
X-0051517Y0044815D01*
Y0044903D01*
X-0051430Y0044990D01*
X-0051342Y0045034D01*
X-0051168D01*
X-0051080Y0044990D01*
X-0050993Y0044903D01*
Y0044815D01*
X-0051255Y0044444D02*
Y0044094D01*
Y0043810D02*
Y0043547D01*
X-0051342Y0043503D01*
X-0051430D01*
X-0051517Y0043547D01*
Y0043810D01*
X-0051430Y0043853D01*
X-0051342D01*
X-0050993Y0043678D01*
Y0043001D02*
X-0051517Y0043263D01*
Y0042913D01*
X-0051080Y0042323D02*
X-0050993Y0042366D01*
Y0042629D01*
X-0051080Y0042673D01*
X-0051255D01*
X-0051342Y0042585D01*
Y0042323D01*
X-0051517D01*
Y0042673D01*
X-0051255Y0041776D02*
Y0042039D01*
X-0051168Y0042082D01*
X-0051080D01*
X-0050993Y0042039D01*
Y0041776D01*
X-0051080Y0041732D01*
X-0051168D01*
X-0051517Y0041907D01*
X-0051080Y0041142D02*
X-0050993Y0041186D01*
Y0041448D01*
X-0051080Y0041492D01*
X-0051255D01*
X-0051342Y0041405D01*
Y0041142D01*
X-0051517D01*
Y0041492D01*
X-0051255Y0040902D02*
Y0040552D01*
X-0050993Y0040005D02*
X-0051517D01*
X-0050993Y0039961D02*
Y0040224D01*
X-0051168Y0040311D01*
X-0051342D01*
X-0051517Y0040224D01*
Y0039961D01*
X-0051430Y0039721D02*
X-0051517Y0039677D01*
Y0039415D01*
X-0051430Y0039371D01*
X-0051342D01*
X-0051255Y0039415D01*
Y0039677D01*
X-0051168Y0039721D01*
X-0051080D01*
X-0050993Y0039677D01*
Y0039415D01*
X-0051080Y0039371D01*
X-0050993Y0038344D02*
X-0051517Y0038081D01*
Y0038344D02*
X-0050993Y0038081D01*
X-0051255Y0037710D02*
Y0037447D01*
X-0050993Y0037797D02*
Y0037447D01*
X-0051517D01*
Y0037797D01*
X-0050993Y0037207D02*
Y0036901D01*
X-0051517D01*
X-0050993Y0036354D02*
X-0051080Y0036310D01*
X-0051430D01*
X-0051517Y0036354D01*
Y0036616D01*
X-0051430Y0036660D01*
X-0051080D01*
X-0050993Y0036616D01*
Y0036354D01*
Y0036070D02*
X-0051517D01*
X-0051430Y0035982D01*
X-0051255Y0035895D01*
X-0051430Y0035807D01*
X-0051517Y0035720D01*
X-0050993D01*
Y0035480D02*
X-0051168Y0035392D01*
X-0051342D01*
X-0051517Y0035480D01*
X-0050993Y0033883D02*
X-0051517D01*
X-0050993Y0033840D02*
Y0034102D01*
X-0051080Y0034190D01*
X-0051168D01*
X-0051255Y0034146D01*
Y0033883D02*
Y0034146D01*
X-0051342Y0034190D01*
X-0051430D01*
X-0051517Y0034102D01*
Y0033840D01*
X-0051168Y0033599D02*
Y0033249D01*
X-0050993Y0033599D02*
X-0051255D01*
X-0051517Y0033468D01*
Y0033380D01*
X-0051255Y0033249D01*
X-0050993D01*
X-0050818Y0033009D02*
Y0032659D01*
X-0050993Y0032112D02*
X-0051517D01*
X-0050993Y0032069D02*
Y0032331D01*
X-0051080Y0032419D01*
X-0051168D01*
X-0051255Y0032375D01*
Y0032112D02*
Y0032375D01*
X-0051342Y0032419D01*
X-0051430D01*
X-0051517Y0032331D01*
Y0032069D01*
X-0051430Y0031828D02*
X-0051517Y0031784D01*
Y0031522D01*
X-0051430Y0031478D01*
X-0051342D01*
X-0051255Y0031522D01*
Y0031784D01*
X-0051168Y0031828D01*
X-0051080D01*
X-0050993Y0031784D01*
Y0031522D01*
X-0051080Y0031478D01*
X-0051517Y0031238D02*
X-0051080D01*
X-0050993Y0031194D01*
Y0030932D01*
X-0051080Y0030888D01*
X-0051517D01*
X-0050993Y0030648D02*
Y0030473D01*
Y0030560D02*
X-0051517D01*
Y0030648D02*
Y0030473D01*
Y0030145D02*
X-0050993D01*
X-0051080Y0030057D01*
X-0051430Y0029882D01*
X-0051517Y0029795D01*
X-0050993D01*
Y0029554D02*
Y0029379D01*
Y0029467D02*
X-0051517D01*
Y0029554D02*
Y0029379D01*
X-0050993Y0029052D02*
X-0051517D01*
X-0051430Y0028964D01*
X-0051255Y0028877D01*
X-0051430Y0028789D01*
X-0051517Y0028702D01*
X-0050993D01*
X-0056780Y0027045D02*
Y0026870D01*
Y0026957D02*
X-0057305D01*
X-0057217Y0026870D01*
X-0057305Y0026542D02*
X-0056780D01*
X-0056867Y0026454D01*
X-0057217Y0026279D01*
X-0057305Y0026192D01*
X-0056780D01*
X-0056867Y0025952D02*
X-0056780Y0025908D01*
Y0025645D01*
X-0056867Y0025602D01*
X-0057217D01*
X-0057305Y0025645D01*
Y0025908D01*
X-0057217Y0025952D01*
G54D50*
G01X-0034824Y0031409D02*
X-0034785Y0031370D01*
X-0034766Y0031331D01*
Y0031253D01*
X-0034785Y0031214D01*
X-0034824Y0031176D01*
X-0034863D01*
X-0034902Y0031214D01*
X-0034921Y0031253D01*
Y0031331D01*
X-0034902Y0031370D01*
X-0034863Y0031409D01*
X-0034824D01*
X-0034646D02*
X-0034569D01*
X-0034608D02*
Y0031176D01*
X-0034569Y0031214D01*
X-0034274Y0031409D02*
Y0031176D01*
X-0034255Y0031409D02*
X-0034371D01*
X-0034410Y0031370D01*
Y0031331D01*
X-0034391Y0031292D01*
X-0034274D02*
X-0034391D01*
X-0034410Y0031253D01*
Y0031214D01*
X-0034371Y0031176D01*
X-0034255D01*
X-0034174Y0032459D02*
X-0034135Y0032420D01*
X-0034116Y0032381D01*
Y0032304D01*
X-0034135Y0032265D01*
X-0034174Y0032226D01*
X-0034213D01*
X-0034252Y0032265D01*
X-0034272Y0032304D01*
Y0032381D01*
X-0034252Y0032420D01*
X-0034213Y0032459D01*
X-0034174D01*
G54D51*
G01X-0035324Y0033000D02*
X-0035062D01*
X-0035193Y0032737D01*
X-0035258D01*
Y0033131D01*
X-0034911Y0033066D02*
X-0034878Y0033131D01*
X-0034681D01*
X-0034648Y0033066D01*
Y0032803D01*
X-0034681Y0032737D01*
X-0034878D01*
X-0034911Y0032803D01*
X-0026834Y0033341D02*
X-0026769Y0033309D01*
X-0026703D01*
X-0026637Y0033341D01*
Y0033538D01*
X-0026703Y0033571D01*
X-0026769D01*
X-0026834Y0033538D01*
Y0033341D01*
X-0026900Y0033309D01*
X-0026966D01*
X-0027031Y0033341D01*
Y0033538D01*
X-0026966Y0033571D01*
X-0026900D01*
X-0026834Y0033538D01*
X-0026900Y0033951D02*
X-0026966D01*
X-0027031Y0033919D01*
Y0033787D01*
X-0026966Y0033755D01*
X-0026637D01*
Y0033722D02*
Y0033853D01*
X-0043581Y0036073D02*
X-0043187Y0035876D01*
Y0036138D01*
X-0043516Y0036289D02*
X-0043581Y0036322D01*
Y0036519D01*
X-0043516Y0036551D01*
X-0043253D01*
X-0043187Y0036519D01*
Y0036322D01*
X-0043253Y0036289D01*
G54D53*
G01X-0042544Y0036860D02*
X-0044355D01*
X-0042544Y0036820D02*
X-0044355D01*
X-0042544Y0036781D02*
X-0044355D01*
X-0027575Y0031665D02*
X-0026227D01*
X-0026225Y0031668D01*
Y0032575D01*
X-0025900D01*
Y0033425D01*
X-0026225D01*
Y0034335D01*
X-0027575D01*
Y0031665D01*
X-0044355Y0037096D02*
X-0042544D01*
Y0034104D01*
X-0044355D01*
Y0037096D01*
X-0042544Y0037057D02*
X-0044355D01*
X-0042544Y0037017D02*
X-0044355D01*
X-0042544Y0036978D02*
X-0044355D01*
X-0042544Y0036938D02*
X-0044355D01*
X-0042544Y0036899D02*
X-0044355D01*
X-0034360Y0033689D02*
Y0032311D01*
X-0036840D01*
Y0033689D01*
X-0034360D01*
X-0034399Y0032311D02*
Y0033689D01*
X-0034439Y0032311D02*
Y0033689D01*
X-0034478Y0032311D02*
Y0033689D01*
X-0034517Y0032311D02*
Y0033689D01*
X-0034557Y0032311D02*
Y0033689D01*
X-0034596Y0032311D02*
Y0033689D01*
X-0034635Y0032311D02*
Y0033689D01*
X-0034675Y0032311D02*
Y0033689D01*
G54D11*
X-0028100Y0028400D03*
X-0027540D03*
X-0028100Y0027400D03*
X-0027540D03*
X-0050900Y0024050D03*
X-0050340D03*
X-0050350Y0024900D03*
X-0050910D03*
X-0028100Y0026300D03*
X-0027540D03*
X-0028100Y0025200D03*
X-0027540D03*
X-0044650Y0027200D03*
X-0045210D03*
X-0046400D03*
X-0046960D03*
X-0048450Y0029100D03*
X-0047890D03*
X-0050350Y0025850D03*
X-0050910D03*
X-0050900Y0029100D03*
X-0050340D03*
X-0050900Y0028050D03*
X-0050340D03*
X-0050900Y0026950D03*
X-0050340D03*
X-0036300Y0031750D03*
X-0035740D03*
X-0041000Y0024050D03*
X-0040440D03*
X-0042550D03*
X-0041990D03*
X-0034650Y0031750D03*
X-0035060D03*
G54D17*
X-0032400Y0034000D03*
X-0046400Y0030200D03*
X-0053000Y0039000D03*
X-0044000D03*
X-0034000D03*
X-0053000Y0023000D03*
X-0044000D03*
X-0034000D03*
X-0053000Y0038000D03*
X-0044000D03*
X-0034000D03*
X-0053000Y0022000D03*
X-0044000D03*
X-0034000D03*
X-0029200Y0028700D03*
Y0027500D03*
Y0026300D03*
Y0025200D03*
X-0045000Y0033700D03*
X-0051000Y0036300D03*
X-0049300Y0024400D03*
G54D20*
X-0031500Y0036000D03*
X-0029650D03*
X-0038050Y0027000D03*
X-0039900D03*
G54D21*
X-0027500Y0024000D03*
Y0022150D03*
G54D22*
X-0026700Y0028400D03*
X-0025825D03*
X-0026700Y0027400D03*
X-0025825D03*
X-0026700Y0026300D03*
X-0025825D03*
X-0026700Y0025200D03*
X-0025825D03*
G54D23*
X-0032400Y0033000D03*
Y0032000D03*
X-0046400Y0031200D03*
Y0032200D03*
X-0052000Y0039000D03*
X-0051000D03*
X-0050000D03*
X-0049000D03*
X-0048000D03*
X-0047000D03*
X-0046000D03*
X-0045000D03*
X-0043000D03*
X-0042000D03*
X-0041000D03*
X-0040000D03*
X-0039000D03*
X-0038000D03*
X-0037000D03*
X-0036000D03*
X-0035000D03*
X-0033000D03*
X-0032000D03*
X-0031000D03*
X-0030000D03*
X-0029000D03*
X-0052000Y0023000D03*
X-0051000D03*
X-0050000D03*
X-0049000D03*
X-0048000D03*
X-0047000D03*
X-0046000D03*
X-0045000D03*
X-0043000D03*
X-0042000D03*
X-0041000D03*
X-0040000D03*
X-0039000D03*
X-0038000D03*
X-0037000D03*
X-0036000D03*
X-0035000D03*
X-0033000D03*
X-0032000D03*
X-0031000D03*
X-0030000D03*
X-0029000D03*
X-0052000Y0038000D03*
X-0051000D03*
X-0050000D03*
X-0049000D03*
X-0048000D03*
X-0047000D03*
X-0046000D03*
X-0045000D03*
X-0043000D03*
X-0042000D03*
X-0041000D03*
X-0040000D03*
X-0039000D03*
X-0038000D03*
X-0037000D03*
X-0036000D03*
X-0035000D03*
X-0033000D03*
X-0032000D03*
X-0031000D03*
X-0030000D03*
X-0029000D03*
X-0052000Y0022000D03*
X-0051000D03*
X-0050000D03*
X-0049000D03*
X-0048000D03*
X-0047000D03*
X-0046000D03*
X-0045000D03*
X-0043000D03*
X-0042000D03*
X-0041000D03*
X-0040000D03*
X-0039000D03*
X-0038000D03*
X-0037000D03*
X-0036000D03*
X-0035000D03*
X-0033000D03*
X-0032000D03*
X-0031000D03*
X-0030000D03*
X-0029000D03*
G54D27*
X-0048550Y0028300D03*
X-0047810D03*
G54D28*
X-0048180Y0027510D03*
G54D29*
X-0044100Y0028650D03*
Y0027910D03*
G54D30*
X-0044890Y0028280D03*
G54D31*
X-0047000Y0036900D03*
Y0036340D03*
X-0046000Y0036900D03*
Y0036340D03*
X-0052000Y0036900D03*
Y0036340D03*
X-0049000Y0036900D03*
Y0036340D03*
X-0048000Y0036900D03*
Y0036340D03*
G54D32*
X-0035750Y0036840D03*
G54D33*
X-0036650Y0034400D03*
X-0035750D03*
X-0034850D03*
M02*
