%
T1C0.0200F200S100
X-054350Y027550
X-054150Y032700
X-054150Y036900
X-052000Y035750
X-051500Y032250
X-051350Y030900
X-051000Y031833
X-050500Y031400
X-050000Y032000
X-050000Y033100
X-049550Y031450
X-049050Y030400
X-049000Y035800
X-048000Y035750
X-047550Y027500
X-047000Y035750
X-046000Y035750
X-045700Y028250
X-045250Y036900
X-044550Y025300
X-043100Y025700
X-039900Y025700
X-035050Y031100
X-033750Y036850
X-030900Y027100
X-030200Y030400
X-030200Y032500
X-030900Y033400
X-029500Y030950
X-028900Y031400
X-028900Y033000
X-029500Y033500
X-027500Y030900
X-026100Y023950
T2C0.0370F200S100
X-053000Y022000
X-053000Y023000
X-052000Y022000
X-052000Y023000
X-052000Y038000
X-053000Y038000
X-053000Y039000
X-052000Y039000
X-051000Y022000
X-051000Y023000
X-050000Y022000
X-050000Y023000
X-051000Y036300
X-051000Y038000
X-051000Y039000
X-050000Y038000
X-050000Y039000
X-049300Y024400
X-049000Y022000
X-049000Y023000
X-049000Y038000
X-049000Y039000
X-048000Y022000
X-048000Y023000
X-047000Y022000
X-047000Y023000
X-047000Y038000
X-048000Y038000
X-048000Y039000
X-047000Y039000
X-046400Y030200
X-046400Y031200
X-046400Y032200
X-046000Y022000
X-046000Y023000
X-046000Y038000
X-046000Y039000
X-045000Y022000
X-045000Y023000
X-044000Y022000
X-044000Y023000
X-045000Y033700
X-045000Y038000
X-045000Y039000
X-044000Y038000
X-044000Y039000
X-043000Y022000
X-043000Y023000
X-042000Y022000
X-042000Y023000
X-042000Y038000
X-043000Y038000
X-043000Y039000
X-042000Y039000
X-041000Y022000
X-041000Y023000
X-040000Y022000
X-040000Y023000
X-040000Y038000
X-041000Y038000
X-041000Y039000
X-040000Y039000
X-039000Y022000
X-039000Y023000
X-038000Y022000
X-038000Y023000
X-038000Y038000
X-039000Y038000
X-039000Y039000
X-038000Y039000
X-037000Y022000
X-037000Y023000
X-036000Y022000
X-036000Y023000
X-036000Y038000
X-037000Y038000
X-037000Y039000
X-036000Y039000
X-035000Y022000
X-035000Y023000
X-034000Y022000
X-034000Y023000
X-034000Y038000
X-035000Y038000
X-035000Y039000
X-034000Y039000
X-033000Y022000
X-033000Y023000
X-032400Y032000
X-032400Y033000
X-032400Y034000
X-033000Y038000
X-033000Y039000
X-032000Y022000
X-032000Y023000
X-031000Y022000
X-031000Y023000
X-031000Y038000
X-032000Y038000
X-032000Y039000
X-031000Y039000
X-030000Y022000
X-030000Y023000
X-029200Y025200
X-029200Y026300
X-029200Y027500
X-029200Y028700
X-030000Y038000
X-030000Y039000
X-029000Y022000
X-029000Y023000
X-029000Y038000
X-029000Y039000
T3C0.0400F200S100
X-026600Y035700
X-026600Y036700
M30
